<?xml version="1.0" encoding="UTF-8"?>
<svg version="1.1" xmlns="http://www.w3.org/2000/svg" width="1024" height="1024">
<path d="M0 0 C337.92 0 675.84 0 1024 0 C1024 337.92 1024 675.84 1024 1024 C686.08 1024 348.16 1024 0 1024 C0 686.08 0 348.16 0 0 Z " fill="#F3BE94" transform="translate(0,0)"/>
<path d="M0 0 C337.92 0 675.84 0 1024 0 C1024 337.92 1024 675.84 1024 1024 C968.23 1024 912.46 1024 855 1024 C855 1000.24 855 976.48 855 952 C832.23 952 809.46 952 786 952 C785.67 940.78 785.34 929.56 785 918 C762.89 918 740.78 918 718 918 C718 917.34 718 916.68 718 916 C717.34 916 716.68 916 716 916 C715.97522627 911.94320623 715.95710507 907.88644194 715.94506836 903.82958984 C715.94004882 902.45035027 715.93323181 901.07111598 715.92456055 899.69189453 C715.9123908 897.70607817 715.90728367 895.72022251 715.90234375 893.734375 C715.89710693 892.54038086 715.89187012 891.34638672 715.88647461 890.11621094 C715.98058054 887.53305383 716.23373845 885.44991581 717 883 C716.14245117 883.00523682 715.28490234 883.01047363 714.40136719 883.01586914 C711.21077727 883.03294152 708.02021069 883.04546505 704.82958984 883.05493164 C703.45035027 883.05995118 702.07111598 883.06676819 700.69189453 883.07543945 C698.70607817 883.0876092 696.72022251 883.09271633 694.734375 883.09765625 C693.54038086 883.10289307 692.34638672 883.10812988 691.11621094 883.11352539 C688 883 688 883 684 882 C684 849 684 816 684 782 C673.77 782 663.54 782 653 782 C653 781.67 653 781.34 653 781 C674.12 781 695.24 781 717 781 C716.67 770.44 716.34 759.88 716 749 C705.77 748.67 695.54 748.34 685 748 C685 747.67 685 747.34 685 747 C706.45 747 727.9 747 750 747 C750 736.44 750 725.88 750 715 C761.55 714.67 773.1 714.34 785 714 C785.33 691.56 785.66 669.12 786 646 C802.83 646.495 802.83 646.495 820 647 C819.9896875 642.49601563 819.979375 637.99203125 819.96875 633.3515625 C819.9499403 609.8726491 820.22066884 586.39587843 820.46356201 562.91851807 C820.52514125 556.93006631 820.58474023 550.94159483 820.64453125 544.953125 C820.76113874 533.3020636 820.88003762 521.65102734 821 510 C809.78 510 798.56 510 787 510 C787 498.12 787 486.24 787 474 C797.89 474 808.78 474 820 474 C819.98839844 469.46378906 819.97679687 464.92757813 819.96484375 460.25390625 C819.95973677 457.38736837 819.95492299 454.52083606 819.95117188 451.65429688 C819.94518427 447.10016725 819.93808617 442.54605765 819.92456055 437.99194336 C819.9137288 434.32207456 819.90772256 430.65222722 819.90512276 426.98234367 C819.90326903 425.57925008 819.8996494 424.17615771 819.89426994 422.7730732 C819.88705581 420.8143032 819.88659191 418.8555118 819.88647461 416.89672852 C819.884254 415.77976089 819.88203339 414.66279327 819.87974548 413.51197815 C820 411 820 411 821 410 C832.22 410 843.44 410 855 410 C855 353.24 855 296.48 855 238 C843.45 238 831.9 238 820 238 C820 215.23 820 192.46 820 169 C808.78 169 797.56 169 786 169 C785.67 157.45 785.34 145.9 785 134 C773.45 134 761.9 134 750 134 C749.67 123.44 749.34 112.88 749 102 C726.56 102 704.12 102 681 102 C681 91.11 681 80.22 681 69 C610.71 69.495 610.71 69.495 539 70 C539 80.56 539 91.12 539 102 C528.77 102 518.54 102 508 102 C508 91.11 508 80.22 508 69 C451.9 69 395.8 69 338 69 C338 79.89 338 90.78 338 102 C329.99258276 102.02097403 321.98526511 102.04100923 313.97784424 102.05175018 C310.2488894 102.05702901 306.51995732 102.06408258 302.79101562 102.07543945 C299.19893926 102.08631093 295.60688495 102.09228588 292.0147934 102.09487724 C290.64488121 102.0967238 289.27497023 102.10032966 287.90506744 102.10573006 C285.98522623 102.11299688 284.06536278 102.11340854 282.14550781 102.11352539 C281.05296692 102.115746 279.96042603 102.11796661 278.83477783 102.12025452 C276 102 276 102 272 101 C271.67 112.22 271.34 123.44 271 135 C253.675 135.495 253.675 135.495 236 136 C236 147.22 236 158.44 236 170 C224.45 170 212.9 170 201 170 C201 192.44 201 214.88 201 238 C189.12 238 177.24 238 165 238 C165.33 238.66 165.66 239.32 166 240 C166.0946051 242.24247338 166.12189761 244.48786284 166.12025452 246.73233032 C166.12153615 247.78232478 166.12153615 247.78232478 166.12284368 248.85353124 C166.12449717 251.21048527 166.11897926 253.56736888 166.11352539 255.92431641 C166.11324346 257.60931903 166.11340136 259.29432178 166.1139679 260.97932434 C166.11425566 265.56378113 166.10836233 270.14821194 166.10139394 274.73266268 C166.0951569 279.51996512 166.09455632 284.3072681 166.09336853 289.09457397 C166.09025625 298.16454236 166.08204425 307.23449874 166.07201904 316.30446184 C166.0608547 326.62837304 166.05534664 336.9522848 166.05032361 347.27620053 C166.03986156 368.51747522 166.02151735 389.75873344 166 411 C177.55 411 189.1 411 201 411 C201 432.45 201 453.9 201 476 C212.55 476 224.1 476 236 476 C236.02284247 489.12036549 236.04108037 502.24071719 236.05181217 515.36109829 C236.05697 521.45729261 236.0639337 527.5534723 236.07543945 533.6496582 C236.12475297 560.45953744 236.015439 587.20680254 235 614 C223.78 614 212.56 614 201 614 C201 624.89 201 635.78 201 647 C213.21 647 225.42 647 238 647 C237.67 669.77 237.34 692.54 237 716 C248.22 716 259.44 716 271 716 C271 726.23 271 736.46 271 747 C292.78 747 314.56 747 337 747 C337 747.33 337 747.66 337 748 C326.44 748.33 315.88 748.66 305 749 C304.67 759.56 304.34 770.12 304 781 C315.22 781 326.44 781 338 781 C338 770.11 338 759.22 338 748 C338.33 748 338.66 748 339 748 C339.09063924 776.27874681 338.8395652 804.55119636 338.53643799 832.828125 C338.47473759 838.62238156 338.41521008 844.41666047 338.35546875 850.2109375 C338.23903749 861.47398073 338.12010464 872.73699535 338 884 C326.78 884 315.56 884 304 884 C304 895.22 304 906.44 304 918 C281.56 918 259.12 918 236 918 C236 929.22 236 940.44 236 952 C212.9 952 189.8 952 166 952 C166 975.76 166 999.52 166 1024 C111.22 1024 56.44 1024 0 1024 C0 686.08 0 348.16 0 0 Z " fill="#F4F4F4" transform="translate(0,0)"/>
<path d="M0 0 C56.1 0 112.2 0 170 0 C170 10.89 170 21.78 170 33 C180.23 33 190.46 33 201 33 C200.67 22.11 200.34 11.22 200 0 C247.19 0 294.38 0 343 0 C343 10.89 343 21.78 343 33 C365.44 33 387.88 33 411 33 C411.94367892 36.77471566 412.11521178 39.65340835 412.09765625 43.515625 C412.09443359 44.76601562 412.09121094 46.01640625 412.08789062 47.3046875 C412.07951172 48.60664062 412.07113281 49.90859375 412.0625 51.25 C412.05798828 52.56742188 412.05347656 53.88484375 412.04882812 55.2421875 C412.03704316 58.49483741 412.02059011 61.74739584 412 65 C413.05501709 64.96447021 414.11003418 64.92894043 415.19702148 64.89233398 C419.09741817 64.76232921 422.99800284 64.63904161 426.89868164 64.51782227 C428.58949623 64.46432885 430.28025358 64.40899402 431.97094727 64.35180664 C434.39587047 64.27009959 436.82091994 64.19493605 439.24609375 64.12109375 C440.00651474 64.09405869 440.76693573 64.06702362 441.55039978 64.03916931 C443.36623334 63.98708701 445.18345843 63.98813415 447 64 C448 65 448 65 448.11352539 68.32641602 C448.11336629 69.80225556 448.10767314 71.27810069 448.09765625 72.75390625 C448.0962413 73.52935287 448.09482635 74.3047995 448.09336853 75.10374451 C448.08775345 77.59003494 448.07519846 80.0762366 448.0625 82.5625 C448.05748694 84.24413933 448.0529237 85.92578006 448.04882812 87.60742188 C448.03862832 91.73834329 448.01905605 95.86907182 448 100 C459.22 100 470.44 100 482 100 C482 122.77 482 145.54 482 169 C493.55 169 505.1 169 517 169 C517 225.76 517 282.52 517 341 C505.78 341.33 494.56 341.66 483 342 C482.67 362.79 482.34 383.58 482 405 C471.11 405 460.22 405 449 405 C449.0309375 412.05375 449.0309375 412.05375 449.0625 419.25 C449.10120999 438.94016908 448.80133553 458.62524568 448.5 478.3125 C448.48804218 479.09395889 448.47608437 479.87541779 448.46376419 480.68055725 C448.31378747 490.45377956 448.15906258 500.22692122 448 510 C443.03396287 510.16724111 438.06777322 510.32783783 433.10131836 510.48217773 C431.41050377 510.53567115 429.71974642 510.59100598 428.02905273 510.64819336 C425.60412953 510.72990041 423.17908006 510.80506395 420.75390625 510.87890625 C419.61327477 510.91945885 419.61327477 510.91945885 418.44960022 510.96083069 C416.63376666 511.01291299 414.81654157 511.01186585 413 511 C412 510 412 510 411.87695217 508.25274563 C411.87787396 507.48673566 411.87879576 506.72072569 411.87974548 505.9315033 C411.87837082 505.05505661 411.87699615 504.17860992 411.87557983 503.27560425 C411.87917511 502.30672272 411.88277039 501.33784119 411.88647461 500.33959961 C411.88632858 499.32508224 411.88618256 498.31056488 411.8860321 497.26530457 C411.88673171 493.89429627 411.89452632 490.52334246 411.90234375 487.15234375 C411.90420776 484.82206757 411.90563174 482.491791 411.90663147 480.16151428 C411.91045798 474.01462735 411.9202894 467.86776387 411.93133545 461.72088623 C411.94154671 455.45390134 411.94612848 449.18691268 411.95117188 442.91992188 C411.96191155 430.61326926 411.97950942 418.30664025 412 406 C400.78 406 389.56 406 378 406 C378 395.44 378 384.88 378 374 C388.89 374 399.78 374 411 374 C411 352.22 411 330.44 411 308 C399.78 308 388.56 308 377 308 C377 329.45 377 350.9 377 373 C331.46 373 285.92 373 239 373 C239 353.77706024 239.01706909 334.5639685 239.21875 315.34375 C239.24130878 313.08020157 239.26372574 310.81665173 239.28601074 308.55310059 C239.3437979 302.72066803 239.40345283 296.88825619 239.46356201 291.05584717 C239.52506326 285.05417032 239.58470809 279.05247502 239.64453125 273.05078125 C239.76125266 261.36716905 239.88012917 249.68358032 240 238 C227.79 238 215.58 238 203 238 C202.67 227.11 202.34 216.22 202 205 C180.94188354 204.91000805 160.04300368 205.18674382 139 206 C138.67 216.56 138.34 227.12 138 238 C126.45 238 114.9 238 103 238 C103 282.55 103 327.1 103 373 C58.12 373 13.24 373 -33 373 C-34.14969136 335.06018519 -34.14969136 335.06018519 -34.0625 321.4375 C-34.041875 316.673125 -34.02125 311.90875 -34 307 C-44.56 307 -55.12 307 -66 307 C-66 329.44 -66 351.88 -66 375 C-49.665 374.505 -49.665 374.505 -33 374 C-33 384.56 -33 395.12 -33 406 C-44.55 406 -56.1 406 -68 406 C-68 440.32 -68 474.64 -68 510 C-56.12 510 -44.24 510 -32 510 C-31.9690625 518.105625 -31.9690625 518.105625 -31.9375 526.375 C-31.928396 528.07962402 -31.91929199 529.78424805 -31.90991211 531.54052734 C-31.90699198 532.88899659 -31.90444365 534.23746672 -31.90234375 535.5859375 C-31.89722778 536.28823486 -31.89211182 536.99053223 -31.88684082 537.71411133 C-31.8859282 542.7718564 -31.8859282 542.7718564 -33 545 C0.99 545 34.98 545 70 545 C69.67 556.22 69.34 567.44 69 579 C35.67 579 2.34 579 -32 579 C-32 600.78 -32 622.56 -32 645 C-42.89 645 -53.78 645 -65 645 C-65 644.67 -65 644.34 -65 644 C-54.77 644 -44.54 644 -34 644 C-34 611.66 -34 579.32 -34 546 C-44.89 546 -55.78 546 -67 546 C-67.020625 551.094375 -67.04125 556.18875 -67.0625 561.4375 C-67.071604 563.04681396 -67.08070801 564.65612793 -67.09008789 566.31420898 C-67.09258545 567.57048096 -67.09508301 568.82675293 -67.09765625 570.12109375 C-67.10551147 572.06133423 -67.10551147 572.06133423 -67.11352539 574.04077148 C-67.33996932 576.88652404 -67.33996932 576.88652404 -66 578 C-65.90574405 580.14743549 -65.88257352 582.29801026 -65.88647461 584.44750977 C-65.88632858 585.12065216 -65.88618256 585.79379456 -65.8860321 586.48733521 C-65.88673122 588.72205784 -65.89452348 590.9566981 -65.90234375 593.19140625 C-65.90420794 594.73697362 -65.90563184 596.28254157 -65.90663147 597.82810974 C-65.9104566 601.90357077 -65.92028683 605.97899637 -65.93133545 610.05444336 C-65.94334434 614.94027728 -65.94795183 619.82612302 -65.95378876 624.71196747 C-65.9634986 632.14133631 -65.98265516 639.57062737 -66 647 C-55.11 647 -44.22 647 -33 647 C-33 657.23 -33 667.46 -33 678 C-44.22 678 -55.44 678 -67 678 C-67 667.77 -67 657.54 -67 647 C-78.22 647 -89.44 647 -101 647 C-101.04010881 630.93865013 -101.04010881 630.93865013 -101.04882812 624.08984375 C-101.05480478 619.41746891 -101.06187371 614.74511368 -101.07543945 610.07275391 C-101.08630847 606.30561356 -101.09228537 602.53849424 -101.09487724 598.77133942 C-101.09672424 597.33444131 -101.10033095 595.89754436 -101.10573006 594.46065521 C-101.11299363 592.44741438 -101.11340851 590.43415237 -101.11352539 588.42089844 C-101.115746 587.27506287 -101.11796661 586.12922729 -101.12025452 584.94866943 C-101 582 -101 582 -100 578 C-112.21 578 -124.42 578 -137 578 C-137 567.11 -137 556.22 -137 545 C-125.78 545 -114.56 545 -103 545 C-103.0103125 540.68035156 -103.020625 536.36070312 -103.03125 531.91015625 C-103.05082559 508.29236262 -102.77536353 484.67634232 -102.53643799 461.06005859 C-102.47492229 454.94434765 -102.41528594 448.82861837 -102.35546875 442.71289062 C-102.23876847 430.80857541 -102.11988779 418.90428354 -102 407 C-113.55 407 -125.1 407 -137 407 C-137 385.55 -137 364.1 -137 342 C-148.55 342 -160.1 342 -172 342 C-172.33 284.91 -172.66 227.82 -173 169 C-161.12 169 -149.24 169 -137 169 C-137 146.56 -137 124.12 -137 101 C-125.45 101 -113.9 101 -102 101 C-102 89.78 -102 78.56 -102 67 C-97.13092462 66.3044178 -93.02326863 65.8800771 -88.19140625 65.90234375 C-86.95068359 65.90556641 -85.70996094 65.90878906 -84.43164062 65.91210938 C-83.15482422 65.92048828 -81.87800781 65.92886719 -80.5625 65.9375 C-78.60666992 65.94426758 -78.60666992 65.94426758 -76.61132812 65.95117188 C-73.40750448 65.96290749 -70.20377637 65.97932637 -67 66 C-67.00523682 65.18321777 -67.01047363 64.36643555 -67.01586914 63.52490234 C-67.03671349 59.80827612 -67.04968392 56.09166222 -67.0625 52.375 C-67.07087891 51.08980469 -67.07925781 49.80460937 -67.08789062 48.48046875 C-67.09111328 47.23652344 -67.09433594 45.99257812 -67.09765625 44.7109375 C-67.10289307 43.56931152 -67.10812988 42.42768555 -67.11352539 41.25146484 C-67 38 -67 38 -66 32 C-33.33 32.495 -33.33 32.495 0 33 C0 22.11 0 11.22 0 0 Z " fill="#24232A" transform="translate(338,69)"/>
<path d="M0 0 C1.47583955 0.0001591 2.95168467 0.00585225 4.42749023 0.01586914 C5.20293686 0.01728409 5.97838348 0.01869904 6.77732849 0.02015686 C9.26361893 0.02577194 11.74982059 0.03832693 14.23608398 0.05102539 C15.91772331 0.05603845 17.59936405 0.06060169 19.28100586 0.06469727 C23.41192728 0.07489707 27.5426558 0.09446934 31.67358398 0.11352539 C31.67358398 10.34352539 31.67358398 20.57352539 31.67358398 31.11352539 C41.90358398 31.11352539 52.13358398 31.11352539 62.67358398 31.11352539 C62.67358398 43.32352539 62.67358398 55.53352539 62.67358398 68.11352539 C51.78358398 68.11352539 40.89358398 68.11352539 29.67358398 68.11352539 C30.00358398 89.89352539 30.33358398 111.67352539 30.67358398 134.11352539 C41.56358398 134.11352539 52.45358398 134.11352539 63.67358398 134.11352539 C63.67358398 145.66352539 63.67358398 157.21352539 63.67358398 169.11352539 C75.55358398 169.11352539 87.43358398 169.11352539 99.67358398 169.11352539 C99.67358398 180.45175963 99.21288879 191.78812448 98.67358398 203.11352539 C143.88358398 203.11352539 189.09358398 203.11352539 235.67358398 203.11352539 C235.67358398 191.89352539 235.67358398 180.67352539 235.67358398 169.11352539 C247.55358398 169.11352539 259.43358398 169.11352539 271.67358398 169.11352539 C271.67358398 157.56352539 271.67358398 146.01352539 271.67358398 134.11352539 C282.56358398 134.11352539 293.45358398 134.11352539 304.67358398 134.11352539 C304.67358398 112.00352539 304.67358398 89.89352539 304.67358398 67.11352539 C293.78358398 67.11352539 282.89358398 67.11352539 271.67358398 67.11352539 C270.89876711 62.46462413 270.55605398 58.61554711 270.57592773 53.96508789 C270.57842529 52.76190918 270.58092285 51.55873047 270.58349609 50.3190918 C270.5971521 48.05171143 270.5971521 48.05171143 270.61108398 45.73852539 C270.63170898 40.91227539 270.65233398 36.08602539 270.67358398 31.11352539 C281.89358398 31.11352539 293.11358398 31.11352539 304.67358398 31.11352539 C304.67358398 20.88352539 304.67358398 10.65352539 304.67358398 0.11352539 C316.88358398 0.11352539 329.09358398 0.11352539 341.67358398 0.11352539 C341.67358398 32.78352539 341.67358398 65.45352539 341.67358398 99.11352539 C358.00858398 99.60852539 358.00858398 99.60852539 374.67358398 100.11352539 C374.34358398 111.00352539 374.01358398 121.89352539 373.67358398 133.11352539 C374.33358398 133.11352539 374.99358398 133.11352539 375.67358398 133.11352539 C375.67358398 133.77352539 375.67358398 134.43352539 375.67358398 135.11352539 C397.78358398 135.11352539 419.89358398 135.11352539 442.67358398 135.11352539 C444.89719466 146.23157878 443.67358398 157.77529116 443.67358398 169.11352539 C466.44358398 169.11352539 489.21358398 169.11352539 512.67358398 169.11352539 C512.67358398 192.87352539 512.67358398 216.63352539 512.67358398 241.11352539 C285.30358398 241.11352539 57.93358398 241.11352539 -176.32641602 241.11352539 C-176.32641602 217.35352539 -176.32641602 193.59352539 -176.32641602 169.11352539 C-153.22641602 169.11352539 -130.12641602 169.11352539 -106.32641602 169.11352539 C-106.32641602 157.89352539 -106.32641602 146.67352539 -106.32641602 135.11352539 C-83.88641602 135.11352539 -61.44641602 135.11352539 -38.32641602 135.11352539 C-38.32641602 123.89352539 -38.32641602 112.67352539 -38.32641602 101.11352539 C-27.10641602 101.11352539 -15.88641602 101.11352539 -4.32641602 101.11352539 C-4.33165283 98.08946533 -4.33688965 95.06540527 -4.34228516 91.94970703 C-4.35881918 81.98320648 -4.36988649 72.01670535 -4.37822819 62.05019474 C-4.38345755 56.00464722 -4.39055616 49.95911369 -4.40185547 43.91357422 C-4.41268246 38.08458251 -4.41869245 32.2556043 -4.42129326 26.42660332 C-4.42314785 24.19734929 -4.4267691 21.96809604 -4.43214607 19.73884773 C-4.43935401 16.62812805 -4.44040706 13.5174649 -4.43994141 10.40673828 C-4.44353668 9.4752597 -4.44713196 8.54378113 -4.45083618 7.58407593 C-4.43871298 0.15148635 -4.43871298 0.15148635 0 0 Z " fill="#24232A" transform="translate(342.326416015625,782.886474609375)"/>
<path d="M0 0 C1.0979187 -0.00388229 1.0979187 -0.00388229 2.21801758 -0.00784302 C4.28732318 -0.0136429 6.35647489 -0.01215356 8.42578125 -0.0078125 C10.20529175 -0.00612061 10.20529175 -0.00612061 12.02075195 -0.00439453 C14.6875 0.125 14.6875 0.125 15.6875 1.125 C15.7759283 3.57303767 15.80285972 5.99344794 15.78515625 8.44140625 C15.78414917 9.08911987 15.78314209 9.7368335 15.78210449 10.4041748 C15.77685843 12.83196779 15.76289725 15.25973561 15.75 17.6875 C15.729375 23.111875 15.70875 28.53625 15.6875 34.125 C27.8975 34.125 40.1075 34.125 52.6875 34.125 C52.7103388 47.00186859 52.72857835 59.87872313 52.73931217 72.7556076 C52.74447087 78.7386095 52.75143629 84.72159651 52.76293945 90.70458984 C52.77402363 96.50778849 52.77982917 102.31097308 52.78237724 108.11418152 C52.7841866 110.29827597 52.78771551 112.48236989 52.79323006 114.66645813 C52.83720147 132.850651 52.25607966 150.93045086 51.6875 169.125 C97.2275 169.125 142.7675 169.125 189.6875 169.125 C189.6875 147.675 189.6875 126.225 189.6875 104.125 C200.9075 104.125 212.1275 104.125 223.6875 104.125 C223.6875 125.905 223.6875 147.685 223.6875 170.125 C212.7975 170.125 201.9075 170.125 190.6875 170.125 C190.6875 180.685 190.6875 191.245 190.6875 202.125 C201.5775 202.125 212.4675 202.125 223.6875 202.125 C223.6875 214.995 223.6875 227.865 223.6875 241.125 C223.3575 241.125 223.0275 241.125 222.6875 241.125 C222.6875 228.585 222.6875 216.045 222.6875 203.125 C215.571875 203.1559375 215.571875 203.1559375 208.3125 203.1875 C190.75109507 203.22406211 173.24050138 202.71254816 155.6875 202.125 C155.6875 213.015 155.6875 223.905 155.6875 235.125 C167.2375 235.125 178.7875 235.125 190.6875 235.125 C190.6875 235.455 190.6875 235.785 190.6875 236.125 C179.1375 236.125 167.5875 236.125 155.6875 236.125 C155.6875 247.675 155.6875 259.225 155.6875 271.125 C144.7975 271.125 133.9075 271.125 122.6875 271.125 C122.6875 260.235 122.6875 249.345 122.6875 238.125 C133.2475 238.125 143.8075 238.125 154.6875 238.125 C154.6875 226.575 154.6875 215.025 154.6875 203.125 C131.9175 203.125 109.1475 203.125 85.6875 203.125 C85.6875 214.015 85.6875 224.905 85.6875 236.125 C84.6875 237.125 84.6875 237.125 81.72827148 237.23852539 C80.43477783 237.23328857 79.14128418 237.22805176 77.80859375 237.22265625 C76.55232178 237.22015869 75.2960498 237.21766113 74.00170898 237.21508789 C71.58773804 237.20143188 71.58773804 237.20143188 69.125 237.1875 C64.030625 237.166875 58.93625 237.14625 53.6875 237.125 C54.0175 248.675 54.3475 260.225 54.6875 272.125 C70.5275 272.62 70.5275 272.62 86.6875 273.125 C86.6875 284.345 86.6875 295.565 86.6875 307.125 C81.44875 307.145625 76.21 307.16625 70.8125 307.1875 C69.16008301 307.196604 67.50766602 307.20570801 65.80517578 307.21508789 C64.5107959 307.21758545 63.21641602 307.22008301 61.8828125 307.22265625 C61.20210693 307.22777222 60.52140137 307.23288818 59.82006836 307.23815918 C54.9156436 307.2390718 54.9156436 307.2390718 52.6875 306.125 C52.6875 294.575 52.6875 283.025 52.6875 271.125 C41.1375 271.125 29.5875 271.125 17.6875 271.125 C17.625625 263.08125 17.625625 263.08125 17.5625 254.875 C17.54429199 253.18858398 17.52608398 251.50216797 17.50732422 249.76464844 C17.50148051 248.42122719 17.49638466 247.0778024 17.4921875 245.734375 C17.48195557 245.04230957 17.47172363 244.35024414 17.46118164 243.63720703 C17.45980326 239.81910096 17.96900436 237.46801105 19.6875 234.125 C19.96294135 230.92805813 19.96294135 230.92805813 19.8828125 227.390625 C19.87636719 226.09511719 19.86992188 224.79960937 19.86328125 223.46484375 C19.84657193 222.10155981 19.82964206 220.73827856 19.8125 219.375 C19.8024634 217.99610015 19.79333873 216.61719335 19.78515625 215.23828125 C19.76158093 211.86701118 19.7286727 208.49609364 19.6875 205.125 C22.39558433 204.95305814 25.10384063 204.78743176 27.8125 204.625 C28.92431641 204.55345703 28.92431641 204.55345703 30.05859375 204.48046875 C37.30518222 204.05419884 44.3822094 204.125 51.6875 204.125 C51.6875 192.905 51.6875 181.685 51.6875 170.125 C40.7975 170.125 29.9075 170.125 18.6875 170.125 C18.6875 181.015 18.6875 191.905 18.6875 203.125 C-4.0825 203.125 -26.8525 203.125 -50.3125 203.125 C-50.3125 192.235 -50.3125 181.345 -50.3125 170.125 C-61.5325 170.125 -72.7525 170.125 -84.3125 170.125 C-84.3125 180.685 -84.3125 191.245 -84.3125 202.125 C-117.9725 202.125 -151.6325 202.125 -186.3125 202.125 C-186.3125 213.675 -186.3125 225.225 -186.3125 237.125 C-197.5325 237.455 -208.7525 237.785 -220.3125 238.125 C-220.6425 249.015 -220.9725 259.905 -221.3125 271.125 C-209.4325 271.125 -197.5525 271.125 -185.3125 271.125 C-185.3125 283.335 -185.3125 295.545 -185.3125 308.125 C-162.8725 308.125 -140.4325 308.125 -117.3125 308.125 C-117.3125 318.355 -117.3125 328.585 -117.3125 339.125 C-133.40230778 340.27427198 -133.40230778 340.27427198 -141.2109375 340.22265625 C-142.05677399 340.2212413 -142.90261047 340.21982635 -143.77407837 340.21836853 C-146.4119254 340.21287881 -149.0496797 340.20034968 -151.6875 340.1875 C-153.50260292 340.18247067 -155.3177072 340.17791032 -157.1328125 340.17382812 C-161.52607608 340.16294598 -165.91927246 340.14576194 -170.3125 340.125 C-170.3125 340.455 -170.3125 340.785 -170.3125 341.125 C-186.8125 341.125 -203.3125 341.125 -220.3125 341.125 C-219.9825 329.575 -219.6525 318.025 -219.3125 306.125 C-231.1925 306.125 -243.0725 306.125 -255.3125 306.125 C-255.3125 271.805 -255.3125 237.485 -255.3125 202.125 C-243.7625 202.125 -232.2125 202.125 -220.3125 202.125 C-220.6425 191.895 -220.9725 181.665 -221.3125 171.125 C-231.8725 171.125 -242.4325 171.125 -253.3125 171.125 C-253.3125 148.685 -253.3125 126.245 -253.3125 103.125 C-242.7525 103.125 -232.1925 103.125 -221.3125 103.125 C-221.1475 107.889375 -220.9825 112.65375 -220.8125 117.5625 C-220.76029297 118.9848999 -220.70808594 120.4072998 -220.65429688 121.87280273 C-220.14514491 137.64136018 -220.3125 153.31525418 -220.3125 169.125 C-175.4325 169.125 -130.5525 169.125 -84.3125 169.125 C-84.3125 124.575 -84.3125 80.025 -84.3125 34.125 C-72.7625 34.125 -61.2125 34.125 -49.3125 34.125 C-49.35209911 23.63876835 -49.35209911 23.63876835 -49.40258789 13.15258789 C-49.40633423 11.20727173 -49.40633423 11.20727173 -49.41015625 9.22265625 C-49.41527222 8.53683472 -49.42038818 7.85101318 -49.42565918 7.14440918 C-49.42597054 5.47084769 -49.37472837 3.7974042 -49.3125 2.125 C-47.57539807 0.38789807 -45.18266552 0.89201155 -42.8125 0.80859375 C-41.03879028 0.74551025 -41.03879028 0.74551025 -39.22924805 0.68115234 C-37.93672119 0.64199707 -36.64419434 0.6028418 -35.3125 0.5625 C-34.65754547 0.54165344 -34.00259094 0.52080688 -33.32778931 0.49932861 C-22.21944848 0.15057975 -11.11346564 0.01853061 0 0 Z " fill="#F2BE94" transform="translate(525.3125,272.875)"/>
<path d="M0 0 C56.1 0 112.2 0 170 0 C170 10.89 170 21.78 170 33 C180.23 33 190.46 33 201 33 C200.67 22.11 200.34 11.22 200 0 C247.19 0 294.38 0 343 0 C343 10.89 343 21.78 343 33 C365.44 33 387.88 33 411 33 C411.94367892 36.77471566 412.11521178 39.65340835 412.09765625 43.515625 C412.09443359 44.76601562 412.09121094 46.01640625 412.08789062 47.3046875 C412.07951172 48.60664062 412.07113281 49.90859375 412.0625 51.25 C412.05798828 52.56742188 412.05347656 53.88484375 412.04882812 55.2421875 C412.03704316 58.49483741 412.02059011 61.74739584 412 65 C413.05501709 64.96447021 414.11003418 64.92894043 415.19702148 64.89233398 C419.09741817 64.76232921 422.99800284 64.63904161 426.89868164 64.51782227 C428.58949623 64.46432885 430.28025358 64.40899402 431.97094727 64.35180664 C434.39587047 64.27009959 436.82091994 64.19493605 439.24609375 64.12109375 C440.00651474 64.09405869 440.76693573 64.06702362 441.55039978 64.03916931 C443.36623334 63.98708701 445.18345843 63.98813415 447 64 C448 65 448 65 448.11352539 68.32641602 C448.11336629 69.80225556 448.10767314 71.27810069 448.09765625 72.75390625 C448.0962413 73.52935287 448.09482635 74.3047995 448.09336853 75.10374451 C448.08775345 77.59003494 448.07519846 80.0762366 448.0625 82.5625 C448.05748694 84.24413933 448.0529237 85.92578006 448.04882812 87.60742188 C448.03862832 91.73834329 448.01905605 95.86907182 448 100 C459.22 100 470.44 100 482 100 C482 122.77 482 145.54 482 169 C493.55 169 505.1 169 517 169 C517 225.76 517 282.52 517 341 C505.78 341.33 494.56 341.66 483 342 C482.67 362.79 482.34 383.58 482 405 C471.11 405 460.22 405 449 405 C449 383.55 449 362.1 449 340 C459.89 340 470.78 340 482 340 C482 283.9 482 227.8 482 170 C470.78 170 459.56 170 448 170 C448 147.56 448 125.12 448 102 C435.79 102 423.58 102 411 102 C411 90.12 411 78.24 411 66 C406.17503906 66.01160156 401.35007812 66.02320313 396.37890625 66.03515625 C393.33007679 66.04026317 390.28125257 66.04507695 387.23242188 66.04882812 C382.38857941 66.05481596 377.54475578 66.06191465 372.70092773 66.07543945 C368.79764029 66.08627043 364.89437301 66.09227728 360.9910717 66.09487724 C359.49866353 66.09673111 358.00625652 66.100351 356.51385689 66.10573006 C354.43051861 66.11294331 352.34726469 66.11399083 350.26391602 66.11352539 C348.48187523 66.11685631 348.48187523 66.11685631 346.66383362 66.12025452 C344 66 344 66 343 65 C342.67 54.77 342.34 44.54 342 34 C272.7 33.505 272.7 33.505 202 33 C202.33 33.66 202.66 34.32 203 35 C203.09632771 36.63448131 203.13075095 38.27284018 203.1328125 39.91015625 C203.13410156 40.90080078 203.13539063 41.89144531 203.13671875 42.91210938 C203.13285156 43.95173828 203.12898438 44.99136719 203.125 46.0625 C203.12886719 47.07505859 203.13273437 48.08761719 203.13671875 49.13085938 C203.13478516 50.63036133 203.13478516 50.63036133 203.1328125 52.16015625 C203.13168457 53.06386963 203.13055664 53.96758301 203.12939453 54.89868164 C202.9605113 58.94646216 202.44739147 62.97347674 202 67 C191.44 67 180.88 67 170 67 C170 56.11 170 45.22 170 34 C114.23 34 58.46 34 1 34 C1 44.89 1 55.78 1 67 C-21.11 67 -43.22 67 -66 67 C-65.96039853 78.47353412 -65.96039853 78.47353412 -65.90991211 89.94702148 C-65.90699289 91.38004482 -65.90444434 92.81306898 -65.90234375 94.24609375 C-65.89722778 94.99669067 -65.89211182 95.7472876 -65.88684082 96.52062988 C-65.88653008 98.34747601 -65.93768887 100.17421683 -66 102 C-67.59249433 103.59249433 -69.24883256 103.12983027 -71.453125 103.1328125 C-72.84917969 103.13474609 -72.84917969 103.13474609 -74.2734375 103.13671875 C-75.25570312 103.13285156 -76.23796875 103.12898438 -77.25 103.125 C-78.65378906 103.13080078 -78.65378906 103.13080078 -80.0859375 103.13671875 C-87.42687605 103.12671747 -94.68920212 102.64472484 -102 102 C-101.99777939 102.63067886 -101.99555878 103.26135773 -101.99327087 103.91114807 C-101.97093848 110.547449 -101.95597835 117.18373905 -101.94506836 123.82006836 C-101.94007709 126.28817174 -101.93328172 128.75627222 -101.92456055 131.22436523 C-101.91226453 134.79671957 -101.9067195 138.36903442 -101.90234375 141.94140625 C-101.89718246 143.02329727 -101.89202118 144.10518829 -101.88670349 145.21986389 C-101.88610901 153.56257513 -102.44146265 161.62193982 -103 170 C-114.22 170 -125.44 170 -137 170 C-136.67 170.66 -136.34 171.32 -136 172 C-135.9054508 174.21714783 -135.87810166 176.43724028 -135.87974548 178.65640259 C-135.87889106 179.34823179 -135.87803663 180.04006099 -135.87715632 180.7528547 C-135.87550291 183.08216997 -135.88102061 185.41141398 -135.88647461 187.74072266 C-135.88675654 189.4060211 -135.88659864 191.07131967 -135.8860321 192.73661804 C-135.88574435 197.26735767 -135.89163757 201.798071 -135.89860606 206.32880449 C-135.90484321 211.06005248 -135.90544369 215.79130102 -135.90663147 220.52255249 C-135.90974372 229.48627304 -135.91795568 238.44998145 -135.92798096 247.41369665 C-135.9391454 257.61669114 -135.94465338 267.81968621 -135.94967639 278.02268529 C-135.96013837 299.01513182 -135.97848254 320.00756169 -136 341 C-124.78 341 -113.56 341 -102 341 C-101.95989119 357.1816763 -101.95989119 357.1816763 -101.95117188 364.05664062 C-101.94518415 368.75562666 -101.93808575 373.45459328 -101.92456055 378.15356445 C-101.9137292 381.94014257 -101.90772264 385.7266999 -101.90512276 389.51329231 C-101.90326895 390.96104319 -101.89964919 392.40879288 -101.89426994 393.85653496 C-101.88705633 395.87757135 -101.88659192 397.89862848 -101.88647461 399.91967773 C-101.884254 401.07217514 -101.88203339 402.22467255 -101.87974548 403.41209412 C-102 406 -102 406 -103 407 C-105.52068181 407.08846834 -108.01454417 407.11534524 -110.53515625 407.09765625 C-111.53621399 407.09614563 -111.53621399 407.09614563 -112.55749512 407.09460449 C-115.0591808 407.08935808 -117.56084206 407.07539691 -120.0625 407.0625 C-125.651875 407.041875 -131.24125 407.02125 -137 407 C-137 385.55 -137 364.1 -137 342 C-148.55 342 -160.1 342 -172 342 C-172.33 284.91 -172.66 227.82 -173 169 C-161.12 169 -149.24 169 -137 169 C-137 146.56 -137 124.12 -137 101 C-125.45 101 -113.9 101 -102 101 C-102 89.78 -102 78.56 -102 67 C-97.13092462 66.3044178 -93.02326863 65.8800771 -88.19140625 65.90234375 C-86.95068359 65.90556641 -85.70996094 65.90878906 -84.43164062 65.91210938 C-83.15482422 65.92048828 -81.87800781 65.92886719 -80.5625 65.9375 C-78.60666992 65.94426758 -78.60666992 65.94426758 -76.61132812 65.95117188 C-73.40750448 65.96290749 -70.20377637 65.97932637 -67 66 C-67.00523682 65.18321777 -67.01047363 64.36643555 -67.01586914 63.52490234 C-67.03671349 59.80827612 -67.04968392 56.09166222 -67.0625 52.375 C-67.07087891 51.08980469 -67.07925781 49.80460937 -67.08789062 48.48046875 C-67.09111328 47.23652344 -67.09433594 45.99257812 -67.09765625 44.7109375 C-67.10289307 43.56931152 -67.10812988 42.42768555 -67.11352539 41.25146484 C-67 38 -67 38 -66 32 C-33.33 32.495 -33.33 32.495 0 33 C0 22.11 0 11.22 0 0 Z " fill="#000000" transform="translate(338,69)"/>
<path d="M0 0 C38.70833333 0 38.70833333 0 52.5 0.5625 C54.60475419 0.64767048 56.70948891 0.73080665 58.8145752 0.80735779 C60.63764514 0.87368184 62.4604424 0.94738977 64.28320312 1.02172852 C66.96765696 1.19952403 66.96765696 1.19952403 69 0 C69.33 34.32 69.66 68.64 70 104 C81.55 104 93.1 104 105 104 C104.98839844 99.10285156 104.97679687 94.20570313 104.96484375 89.16015625 C104.95973685 86.06575389 104.95492306 82.9713567 104.95117188 79.87695312 C104.94518399 74.96068244 104.93808516 70.04443031 104.92456055 65.12817383 C104.91372975 61.16653172 104.90772276 57.20490948 104.90512276 53.24325371 C104.90326886 51.72851689 104.8996489 50.21378121 104.89426994 48.69905281 C104.88705693 46.58458187 104.88600917 44.47019406 104.88647461 42.35571289 C104.884254 41.14992081 104.88203339 39.94412872 104.87974548 38.70179749 C105 36 105 36 106 35 C108.52094076 34.91152257 111.01430893 34.88472699 113.53515625 34.90234375 C114.66503212 34.90446617 114.66503212 34.90446617 115.81773376 34.90663147 C118.2326956 34.91224624 120.64756601 34.92480117 123.0625 34.9375 C124.69596221 34.9425131 126.32942586 34.94707634 127.96289062 34.95117188 C131.97529585 34.96222046 135.98763241 34.97949494 140 35 C140.02347356 47.84232376 140.04108927 60.68464218 140.05181217 73.52698326 C140.05696617 79.49423369 140.06392229 85.46146913 140.07543945 91.42871094 C140.12598721 118.30382853 140.07428554 145.1430421 139 172 C137.92479095 172.0082077 136.84958191 172.01641541 135.74179077 172.02487183 C135.04976877 172.03017473 134.35774677 172.03547764 133.64475441 172.04094124 C132.13421564 172.0524309 130.6236756 172.06375541 129.11313438 172.07491875 C125.99115441 172.0981558 122.86926561 172.12238363 119.74737549 172.15582275 C117.63619009 172.17829476 115.52534653 172.18873693 113.4140625 172.1953125 C112.71176514 172.20554443 112.00946777 172.21577637 111.28588867 172.22631836 C109.52231164 172.2269548 107.75930576 172.12266864 106 172 C105.34 171.34 104.68 170.68 104 170 C101.34708243 169.82489614 98.80013826 169.76844517 96.1484375 169.8046875 C94.98738998 169.80893234 94.98738998 169.80893234 93.80288696 169.81326294 C91.32676843 169.82447246 88.8510095 169.84957797 86.375 169.875 C84.69792188 169.88502882 83.02083811 169.89415484 81.34375 169.90234375 C77.22891613 169.92271421 73.11486134 169.96186019 69 170 C69 159.77 69 149.54 69 139 C58.88791275 139.03956937 58.88791275 139.03956937 48.77587891 139.09008789 C46.89521729 139.09383423 46.89521729 139.09383423 44.9765625 139.09765625 C43.68830566 139.10289307 42.40004883 139.10812988 41.07275391 139.11352539 C38 139 38 139 36 138 C36 148.89 36 159.78 36 171 C1.35 171 -33.3 171 -69 171 C-69 160.44 -69 149.88 -69 139 C-91.44 139 -113.88 139 -137 139 C-137 115.9 -137 92.8 -137 69 C-125.78 69 -114.56 69 -103 69 C-103 80.55 -103 92.1 -103 104 C-91.78 104.33 -80.56 104.66 -69 105 C-69 93.78 -69 82.56 -69 71 C-79.48623165 71.03959911 -79.48623165 71.03959911 -89.97241211 71.09008789 C-91.26928955 71.09258545 -92.56616699 71.09508301 -93.90234375 71.09765625 C-94.58816528 71.10277222 -95.27398682 71.10788818 -95.98059082 71.11315918 C-97.65415231 71.11347054 -99.3275958 71.06222837 -101 71 C-102 70 -102 70 -102.11352539 66.67358398 C-102.11336629 65.19774444 -102.10767314 63.72189931 -102.09765625 62.24609375 C-102.0962413 61.47064713 -102.09482635 60.6952005 -102.09336853 59.89625549 C-102.08775345 57.40996506 -102.07519846 54.9237634 -102.0625 52.4375 C-102.05748694 50.75586067 -102.0529237 49.07421994 -102.04882812 47.39257812 C-102.03862832 43.26165671 -102.01905605 39.13092818 -102 35 C-86.655 34.505 -86.655 34.505 -71 34 C-70.67 23.11 -70.34 12.22 -70 1 C-47.23 1 -24.46 1 -1 1 C-1 12.55 -1 24.1 -1 36 C-11.56 36 -22.12 36 -33 36 C-33 46.89 -33 57.78 -33 69 C-22.11 69 -11.22 69 0 69 C0 46.23 0 23.46 0 0 Z " fill="#F1BD93" transform="translate(681,475)"/>
<path d="M0 0 C1.47583955 0.0001591 2.95168467 0.00585225 4.42749023 0.01586914 C5.20293686 0.01728409 5.97838348 0.01869904 6.77732849 0.02015686 C9.26361893 0.02577194 11.74982059 0.03832693 14.23608398 0.05102539 C15.91772331 0.05603845 17.59936405 0.06060169 19.28100586 0.06469727 C23.41192728 0.07489707 27.5426558 0.09446934 31.67358398 0.11352539 C31.67358398 10.34352539 31.67358398 20.57352539 31.67358398 31.11352539 C41.90358398 31.11352539 52.13358398 31.11352539 62.67358398 31.11352539 C62.67358398 43.32352539 62.67358398 55.53352539 62.67358398 68.11352539 C51.78358398 68.11352539 40.89358398 68.11352539 29.67358398 68.11352539 C30.00358398 89.89352539 30.33358398 111.67352539 30.67358398 134.11352539 C41.56358398 134.11352539 52.45358398 134.11352539 63.67358398 134.11352539 C63.67358398 145.66352539 63.67358398 157.21352539 63.67358398 169.11352539 C75.55358398 169.11352539 87.43358398 169.11352539 99.67358398 169.11352539 C99.67358398 180.45175963 99.21288879 191.78812448 98.67358398 203.11352539 C144.21358398 203.44352539 189.75358398 203.77352539 236.67358398 204.11352539 C236.34358398 215.00352539 236.01358398 225.89352539 235.67358398 237.11352539 C190.46358398 237.11352539 145.25358398 237.11352539 98.67358398 237.11352539 C98.67358398 226.22352539 98.67358398 215.33352539 98.67358398 204.11352539 C76.23358398 204.11352539 53.79358398 204.11352539 30.67358398 204.11352539 C30.67358398 193.22352539 30.67358398 182.33352539 30.67358398 171.11352539 C28.17022461 171.12512695 25.66686523 171.13672852 23.08764648 171.14868164 C20.66837694 171.15647598 18.24910879 171.1625506 15.82983398 171.16845703 C14.14590837 171.17349192 12.46198713 171.1803202 10.77807617 171.18896484 C8.36042195 171.20106735 5.94282543 171.20676207 3.52514648 171.21118164 C2.76988678 171.21634293 2.01462708 171.22150421 1.23648071 171.2268219 C-4.0986726 171.2273971 -4.0986726 171.2273971 -6.32641602 170.11352539 C-6.32641602 158.89352539 -6.32641602 147.67352539 -6.32641602 136.11352539 C-16.22641602 136.11352539 -26.12641602 136.11352539 -36.32641602 136.11352539 C-36.32641602 147.33352539 -36.32641602 158.55352539 -36.32641602 170.11352539 C-59.09641602 170.11352539 -81.86641602 170.11352539 -105.32641602 170.11352539 C-105.32641602 181.33352539 -105.32641602 192.55352539 -105.32641602 204.11352539 C-117.20641602 204.11352539 -129.08641602 204.11352539 -141.32641602 204.11352539 C-141.32641602 216.32352539 -141.32641602 228.53352539 -141.32641602 241.11352539 C-152.87641602 241.11352539 -164.42641602 241.11352539 -176.32641602 241.11352539 C-176.32641602 217.35352539 -176.32641602 193.59352539 -176.32641602 169.11352539 C-153.22641602 169.11352539 -130.12641602 169.11352539 -106.32641602 169.11352539 C-106.32641602 157.89352539 -106.32641602 146.67352539 -106.32641602 135.11352539 C-83.88641602 135.11352539 -61.44641602 135.11352539 -38.32641602 135.11352539 C-38.32641602 123.89352539 -38.32641602 112.67352539 -38.32641602 101.11352539 C-27.10641602 101.11352539 -15.88641602 101.11352539 -4.32641602 101.11352539 C-4.33165283 98.08946533 -4.33688965 95.06540527 -4.34228516 91.94970703 C-4.35881918 81.98320648 -4.36988649 72.01670535 -4.37822819 62.05019474 C-4.38345755 56.00464722 -4.39055616 49.95911369 -4.40185547 43.91357422 C-4.41268246 38.08458251 -4.41869245 32.2556043 -4.42129326 26.42660332 C-4.42314785 24.19734929 -4.4267691 21.96809604 -4.43214607 19.73884773 C-4.43935401 16.62812805 -4.44040706 13.5174649 -4.43994141 10.40673828 C-4.44353668 9.4752597 -4.44713196 8.54378113 -4.45083618 7.58407593 C-4.43871298 0.15148635 -4.43871298 0.15148635 0 0 Z " fill="#010000" transform="translate(342.326416015625,782.886474609375)"/>
<path d="M0 0 C21.45 0 42.9 0 65 0 C65 11.55 65 23.1 65 35 C76.88 35 88.76 35 101 35 C101 46.88 101 58.76 101 71 C112.55 71 124.1 71 136 71 C136 115.22 136 159.44 136 205 C125.44 205 114.88 205 104 205 C103.67 215.56 103.34 226.12 103 237 C148.21 236.67 193.42 236.34 240 236 C240 236.66 240 237.32 240 238 C194.46 238 148.92 238 102 238 C102 218.77706024 102.01706909 199.5639685 102.21875 180.34375 C102.24130878 178.08020157 102.26372574 175.81665173 102.28601074 173.55310059 C102.3437979 167.72066803 102.40345283 161.88825619 102.46356201 156.05584717 C102.52506326 150.05417032 102.58470809 144.05247502 102.64453125 138.05078125 C102.76125266 126.36716905 102.88012917 114.68358032 103 103 C90.79 103 78.58 103 66 103 C65.67 92.11 65.34 81.22 65 70 C43.94188354 69.91000805 23.04300368 70.18674382 2 71 C1.67 81.56 1.34 92.12 1 103 C-10.55 103 -22.1 103 -34 103 C-34 147.55 -34 192.1 -34 238 C-78.88 238 -123.76 238 -170 238 C-171.14969136 200.06018519 -171.14969136 200.06018519 -171.0625 186.4375 C-171.041875 181.673125 -171.02125 176.90875 -171 172 C-181.89 172 -192.78 172 -204 172 C-204 171.67 -204 171.34 -204 171 C-193.11 171 -182.22 171 -171 171 C-171.03959995 160.18466757 -171.03959995 160.18466757 -171.09008789 149.36938477 C-171.09300716 148.01839273 -171.09555569 146.66739981 -171.09765625 145.31640625 C-171.10277222 144.60899292 -171.10788818 143.90157959 -171.11315918 143.17272949 C-171.11347032 141.44807383 -171.06225761 139.72353162 -171 138 C-170 137 -170 137 -166.67358398 136.88647461 C-165.19774444 136.88663371 -163.72189931 136.89232686 -162.24609375 136.90234375 C-161.47064713 136.9037587 -160.6952005 136.90517365 -159.89625549 136.90663147 C-157.40996506 136.91224655 -154.9237634 136.92480154 -152.4375 136.9375 C-150.75586067 136.94251306 -149.07421994 136.9470763 -147.39257812 136.95117188 C-143.26165671 136.96137168 -139.13092818 136.98094395 -135 137 C-135 147.89 -135 158.78 -135 170 C-124.11 170 -113.22 170 -102 170 C-102 181.55 -102 193.1 -102 205 C-124.11 205 -146.22 205 -169 205 C-169 215.56 -169 226.12 -169 237 C-124.78 237 -80.56 237 -35 237 C-35 226.44 -35 215.88 -35 205 C-45.56 205 -56.12 205 -67 205 C-67 160.78 -67 116.56 -67 71 C-56.11 71 -45.22 71 -34 71 C-34 58.79 -34 46.58 -34 34 C-22.78 34 -11.56 34 0 34 C0 22.78 0 11.56 0 0 Z " fill="#000000" transform="translate(475,204)"/>
<path d="M0 0 C79.86 0 159.72 0 242 0 C242 10.89 242 21.78 242 33 C230.45 33 218.9 33 207 33 C207 43.89 207 54.78 207 66 C161.46 66 115.92 66 69 66 C69 77.22 69 88.44 69 100 C57.78 100 46.56 100 35 100 C35 88.78 35 77.56 35 66 C29.555 66.495 29.555 66.495 24 67 C21.97759152 67.07825058 19.95360765 67.1302749 17.9296875 67.1328125 C16.93195313 67.13410156 15.93421875 67.13539063 14.90625 67.13671875 C13.9059375 67.13285156 12.905625 67.12898437 11.875 67.125 C10.31652344 67.13080078 10.31652344 67.13080078 8.7265625 67.13671875 C7.74171875 67.13542969 6.756875 67.13414062 5.7421875 67.1328125 C4.8538623 67.13168457 3.96553711 67.13055664 3.05029297 67.12939453 C1 67 1 67 0 66 C0 44.22 0 22.44 0 0 Z " fill="#E9A47B" transform="translate(372,851)"/>
<path d="M0 0 C10.89 0 21.78 0 33 0 C33 34.32 33 68.64 33 104 C44.88 104 56.76 104 69 104 C69.020625 109.40375 69.04125 114.8075 69.0625 120.375 C69.071604 122.07962402 69.08070801 123.78424805 69.09008789 125.54052734 C69.09300802 126.88899659 69.09555635 128.23746672 69.09765625 129.5859375 C69.10277222 130.28823486 69.10788818 130.99053223 69.11315918 131.71411133 C69.1140718 136.7718564 69.1140718 136.7718564 68 139 C101.99 139 135.98 139 171 139 C170.67 150.22 170.34 161.44 170 173 C136.67 173 103.34 173 69 173 C69 194.78 69 216.56 69 239 C58.11 239 47.22 239 36 239 C36 238.67 36 238.34 36 238 C46.23 238 56.46 238 67 238 C67 205.66 67 173.32 67 140 C56.11 140 45.22 140 34 140 C33.979375 145.094375 33.95875 150.18875 33.9375 155.4375 C33.928396 157.04681396 33.91929199 158.65612793 33.90991211 160.31420898 C33.90741455 161.57048096 33.90491699 162.82675293 33.90234375 164.12109375 C33.89448853 166.06133423 33.89448853 166.06133423 33.88647461 168.04077148 C33.66003068 170.88652404 33.66003068 170.88652404 35 172 C35.09425595 174.14743549 35.11742648 176.29801026 35.11352539 178.44750977 C35.11367142 179.12065216 35.11381744 179.79379456 35.1139679 180.48733521 C35.11326878 182.72205784 35.10547652 184.9566981 35.09765625 187.19140625 C35.09579206 188.73697362 35.09436816 190.28254157 35.09336853 191.82810974 C35.0895434 195.90357077 35.07971317 199.97899637 35.06866455 204.05444336 C35.05665566 208.94027728 35.05204817 213.82612302 35.04621124 218.71196747 C35.0365014 226.14133631 35.01734484 233.57062737 35 241 C45.89 241 56.78 241 68 241 C68 251.23 68 261.46 68 272 C56.78 272 45.56 272 34 272 C34 261.77 34 251.54 34 241 C22.78 241 11.56 241 0 241 C-0.04010881 224.93865013 -0.04010881 224.93865013 -0.04882812 218.08984375 C-0.05480478 213.41746891 -0.06187371 208.74511368 -0.07543945 204.07275391 C-0.08630847 200.30561356 -0.09228537 196.53849424 -0.09487724 192.77133942 C-0.09672424 191.33444131 -0.10033095 189.89754436 -0.10573006 188.46065521 C-0.11299363 186.44741438 -0.11340851 184.43415237 -0.11352539 182.42089844 C-0.115746 181.27506287 -0.11796661 180.12922729 -0.12025452 178.94866943 C0 176 0 176 1 172 C-11.21 172 -23.42 172 -36 172 C-36 161.11 -36 150.22 -36 139 C-24.78 139 -13.56 139 -2 139 C-2.01353516 132.51859375 -2.01353516 132.51859375 -2.02734375 125.90625 C-2.04228228 103.50484199 -1.83459661 81.10485244 -1.62768555 58.70458984 C-1.57174281 52.61750237 -1.52191433 46.53037933 -1.47328281 40.44322968 C-1.43452266 35.72512644 -1.39141081 31.00707041 -1.34705925 26.28901672 C-1.32668194 24.04024174 -1.30796132 21.7914511 -1.29092598 19.54264832 C-1.26701106 16.43787421 -1.23696694 13.33321916 -1.20532227 10.22851562 C-1.1995668 9.30212784 -1.19381134 8.37574005 -1.18788147 7.42127991 C-1.11413364 1.11413364 -1.11413364 1.11413364 0 0 Z " fill="#D69471" transform="translate(237,475)"/>
<path d="M0 0 C11.22 0 22.44 0 34 0 C34 10.89 34 21.78 34 33 C56.77 33 79.54 33 103 33 C103 22.11 103 11.22 103 0 C113.89 0 124.78 0 136 0 C136 10.89 136 21.78 136 33 C119.665 33.495 119.665 33.495 103 34 C103 44.56 103 55.12 103 66 C80.23 66 57.46 66 34 66 C34 55.44 34 44.88 34 34 C22.78 34 11.56 34 0 34 C0.165 38.723125 0.33 43.44625 0.5 48.3125 C1.08216285 66.2165131 1.07252936 84.08524713 1 102 C-10.22 102 -21.44 102 -33 102 C-33 113.55 -33 125.1 -33 137 C-55.44 137 -77.88 137 -101 137 C-101 125.12 -101 113.24 -101 101 C-112.88 101 -124.76 101 -137 101 C-137.020625 95.575625 -137.04125 90.15125 -137.0625 84.5625 C-137.071604 82.84877197 -137.08070801 81.13504395 -137.09008789 79.36938477 C-137.09300716 78.01839273 -137.09555569 76.66739981 -137.09765625 75.31640625 C-137.10277222 74.60899292 -137.10788818 73.90157959 -137.11315918 73.17272949 C-137.11347032 71.44807383 -137.06225761 69.72353162 -137 68 C-136 67 -136 67 -132.76538086 66.88647461 C-131.33185875 66.88672562 -129.89833058 66.89228392 -128.46484375 66.90234375 C-127.46378601 66.90385437 -127.46378601 66.90385437 -126.44250488 66.90539551 C-123.9408192 66.91064192 -121.43915794 66.92460309 -118.9375 66.9375 C-110.5534375 66.9684375 -110.5534375 66.9684375 -102 67 C-102 55.45 -102 43.9 -102 32 C-68.34 32 -34.68 32 0 32 C0 21.44 0 10.88 0 0 Z " fill="#000000" transform="translate(441,443)"/>
<path d="M0 0 C11.22 0 22.44 0 34 0 C34 21.78 34 43.56 34 66 C23.11 66 12.22 66 1 66 C1 76.56 1 87.12 1 98 C11.89 98 22.78 98 34 98 C34 110.87 34 123.74 34 137 C33.67 137 33.34 137 33 137 C33 124.46 33 111.92 33 99 C25.884375 99.0309375 25.884375 99.0309375 18.625 99.0625 C1.06359507 99.09906211 -16.44699862 98.58754816 -34 98 C-34 108.89 -34 119.78 -34 131 C-22.45 131 -10.9 131 1 131 C1 131.33 1 131.66 1 132 C-10.55 132 -22.1 132 -34 132 C-34 143.55 -34 155.1 -34 167 C-44.89 167 -55.78 167 -67 167 C-67 156.11 -67 145.22 -67 134 C-56.44 134 -45.88 134 -35 134 C-35 122.45 -35 110.9 -35 99 C-57.77 99 -80.54 99 -104 99 C-104 109.89 -104 120.78 -104 132 C-105 133 -105 133 -107.95922852 133.11352539 C-109.25272217 133.10828857 -110.54621582 133.10305176 -111.87890625 133.09765625 C-113.13517822 133.09515869 -114.3914502 133.09266113 -115.68579102 133.09008789 C-118.09976196 133.07643188 -118.09976196 133.07643188 -120.5625 133.0625 C-125.656875 133.041875 -130.75125 133.02125 -136 133 C-135.67 144.55 -135.34 156.1 -135 168 C-119.16 168.495 -119.16 168.495 -103 169 C-103 180.22 -103 191.44 -103 203 C-108.23875 203.020625 -113.4775 203.04125 -118.875 203.0625 C-120.52741699 203.071604 -122.17983398 203.08070801 -123.88232422 203.09008789 C-125.1767041 203.09258545 -126.47108398 203.09508301 -127.8046875 203.09765625 C-128.48539307 203.10277222 -129.16609863 203.10788818 -129.86743164 203.11315918 C-134.7718564 203.1140718 -134.7718564 203.1140718 -137 202 C-137 190.45 -137 178.9 -137 167 C-148.55 167 -160.1 167 -172 167 C-172.04125 161.6375 -172.0825 156.275 -172.125 150.75 C-172.14320801 149.06358398 -172.16141602 147.37716797 -172.18017578 145.63964844 C-172.18601949 144.29622719 -172.19111534 142.9528024 -172.1953125 141.609375 C-172.20554443 140.91730957 -172.21577637 140.22524414 -172.22631836 139.51220703 C-172.22769674 135.69410096 -171.71849564 133.34301105 -170 130 C-169.72455865 126.80305813 -169.72455865 126.80305813 -169.8046875 123.265625 C-169.81113281 121.97011719 -169.81757812 120.67460937 -169.82421875 119.33984375 C-169.84092807 117.97655981 -169.85785794 116.61327856 -169.875 115.25 C-169.8850366 113.87110015 -169.89416127 112.49219335 -169.90234375 111.11328125 C-169.92591907 107.74201118 -169.9588273 104.37109364 -170 101 C-167.29191567 100.82805814 -164.58365937 100.66243176 -161.875 100.5 C-160.76318359 100.42845703 -160.76318359 100.42845703 -159.62890625 100.35546875 C-152.38231778 99.92919884 -145.3052906 100 -138 100 C-138 88.45 -138 76.9 -138 65 C-92.46 65 -46.92 65 0 65 C0 43.55 0 22.1 0 0 Z " fill="#EFB68C" transform="translate(715,377)"/>
<path d="M0 0 C12.21 0 24.42 0 37 0 C37 32.67 37 65.34 37 99 C53.335 99.495 53.335 99.495 70 100 C69.67 110.89 69.34 121.78 69 133 C69.66 133.33 70.32 133.66 71 134 C70 135 70 135 66.85717773 135.11352539 C65.46597303 135.11336633 64.07476239 135.10767506 62.68359375 135.09765625 C61.95253922 135.0962413 61.22148468 135.09482635 60.46827698 135.09336853 C58.12464368 135.08775408 55.78110461 135.07519922 53.4375 135.0625 C51.85221492 135.05748686 50.26692834 135.05292363 48.68164062 135.04882812 C44.7877239 135.03777997 40.89387795 135.02050572 37 135 C37.16242188 136.29808594 37.32484375 137.59617187 37.4921875 138.93359375 C38.0155184 143.65929031 38.14959464 148.31163477 38.125 153.0625 C38.12886719 153.81337891 38.13273438 154.56425781 38.13671875 155.33789062 C38.13542969 156.08361328 38.13414062 156.82933594 38.1328125 157.59765625 C38.13168457 158.25258057 38.13055664 158.90750488 38.12939453 159.58227539 C37.94272353 163.07020543 37.43324362 166.53405107 37 170 C24.79 170.33 12.58 170.66 0 171 C-0.33 181.89 -0.66 192.78 -1 204 C-17.68080815 204.04010881 -17.68080815 204.04010881 -24.76757812 204.04882812 C-29.61142059 204.05481596 -34.45524422 204.06191465 -39.29907227 204.07543945 C-43.20235971 204.08627043 -47.10562699 204.09227728 -51.0089283 204.09487724 C-52.50133647 204.09673111 -53.99374348 204.100351 -55.48614311 204.10573006 C-57.56948139 204.11294331 -59.65273531 204.11399083 -61.73608398 204.11352539 C-63.51812477 204.11685631 -63.51812477 204.11685631 -65.33616638 204.12025452 C-68 204 -68 204 -69 203 C-69.08846834 200.47931819 -69.11534524 197.98545583 -69.09765625 195.46484375 C-69.09664917 194.79747192 -69.09564209 194.1301001 -69.09460449 193.44250488 C-69.08935808 190.9408192 -69.07539691 188.43915794 -69.0625 185.9375 C-69.041875 180.348125 -69.02125 174.75875 -69 169 C-57.12 169 -45.24 169 -33 169 C-33 157.45 -33 145.9 -33 134 C-22.11 134 -11.22 134 0 134 C0 111.89 0 89.78 0 67 C-10.89 67 -21.78 67 -33 67 C-33.77481688 62.35109874 -34.11753001 58.50202172 -34.09765625 53.8515625 C-34.09515869 52.64838379 -34.09266113 51.44520508 -34.09008789 50.20556641 C-34.08098389 48.69397949 -34.07187988 47.18239258 -34.0625 45.625 C-34.0315625 38.385625 -34.0315625 38.385625 -34 31 C-22.78 31 -11.56 31 0 31 C0 20.77 0 10.54 0 0 Z " fill="#000000" transform="translate(647,783)"/>
<path d="M0 0 C11.55 0 23.1 0 35 0 C35.33 10.23 35.66 20.46 36 31 C51.84 31.495 51.84 31.495 68 32 C68 32.33 68 32.66 68 33 C57.11 33 46.22 33 35 33 C35 44.55 35 56.1 35 68 C23.12 68 11.24 68 -1 68 C-0.67 79.55 -0.34 91.1 0 103 C-14.59691058 103.02272845 -29.19380987 103.04108366 -43.79073429 103.05181217 C-50.57102665 103.05692991 -57.3513071 103.06388437 -64.1315918 103.07543945 C-70.69336 103.0864255 -77.25511592 103.09230959 -83.81689262 103.09487724 C-86.30148957 103.09670352 -88.78608595 103.10026858 -91.27067757 103.10573006 C-106.87586076 103.13862088 -122.41609057 102.83890439 -138 102 C-138.00419166 101.33506625 -138.00838331 100.6701325 -138.01270199 99.98504925 C-138.01825383 99.11267022 -138.02380568 98.24029119 -138.02952576 97.34147644 C-138.03500648 96.476738 -138.04048719 95.61199957 -138.046134 94.72105694 C-138.05830201 92.93031168 -138.07341847 91.13958597 -138.09008789 89.34887695 C-138.112078 82.12689869 -137.55923013 75.26999169 -137 68 C-148.88 68 -160.76 68 -173 68 C-173 56.45 -173 44.9 -173 33 C-172.67 33 -172.34 33 -172 33 C-172 44.22 -172 55.44 -172 67 C-160.78 67 -149.56 67 -138 67 C-138 55.78 -138 44.56 -138 33 C-92.46 33 -46.92 33 0 33 C0 22.11 0 11.22 0 0 Z " fill="#F2BE94" transform="translate(579,884)"/>
<path d="M0 0 C22.44 0 44.88 0 68 0 C68 11.22 68 22.44 68 34 C56.78 34.33 45.56 34.66 34 35 C33.67 45.89 33.34 56.78 33 68 C44.88 68 56.76 68 69 68 C69 80.21 69 92.42 69 105 C91.44 105 113.88 105 137 105 C137 115.23 137 125.46 137 136 C120.91019222 137.14927198 120.91019222 137.14927198 113.1015625 137.09765625 C112.25572601 137.0962413 111.40988953 137.09482635 110.53842163 137.09336853 C107.9005746 137.08787881 105.2628203 137.07534968 102.625 137.0625 C100.80989708 137.05747067 98.9947928 137.05291032 97.1796875 137.04882812 C92.78642392 137.03794598 88.39322754 137.02076194 84 137 C84 137.33 84 137.66 84 138 C67.5 138 51 138 34 138 C34.33 126.45 34.66 114.9 35 103 C23.12 103 11.24 103 -1 103 C-1.0274936 93.52081842 -1.05101124 84.04170535 -1.0625 74.5625 C-1.06335602 73.8612072 -1.06421204 73.1599144 -1.06509399 72.4373703 C-1.09114541 48.27355613 -0.72649829 24.15606798 0 0 Z " fill="#F2BF94" transform="translate(271,476)"/>
<path d="M0 0 C1.43352212 0.00015908 2.86704998 0.00585132 4.30053711 0.01586914 C5.43041298 0.01799156 5.43041298 0.01799156 6.58311462 0.02015686 C8.99807646 0.02577163 11.41294687 0.03832656 13.82788086 0.05102539 C15.46134307 0.05603849 17.09480672 0.06060173 18.72827148 0.06469727 C22.74067671 0.07574585 26.75301326 0.09302033 30.76538086 0.11352539 C30.78885442 12.95584915 30.80647012 25.79816757 30.81719303 38.64050865 C30.82234703 44.60775908 30.82930314 50.57499452 30.84082031 56.54223633 C30.89136807 83.41735392 30.8396664 110.25656749 29.76538086 137.11352539 C28.69017181 137.12173309 27.61496277 137.1299408 26.50717163 137.13839722 C25.81514963 137.14370012 25.12312763 137.14900303 24.41013527 137.15446663 C22.8995965 137.16595629 21.38905646 137.1772808 19.87851524 137.18844414 C16.75653527 137.21168119 13.63464647 137.23590902 10.51275635 137.26934814 C8.40157095 137.29182015 6.29072739 137.30226232 4.17944336 137.30883789 C3.477146 137.31906982 2.77484863 137.32930176 2.05126953 137.33984375 C0.2876925 137.34048019 -1.47531338 137.23619403 -3.23461914 137.11352539 C-3.89461914 136.45352539 -4.55461914 135.79352539 -5.23461914 135.11352539 C-7.88753671 134.93842153 -10.43448088 134.88197056 -13.08618164 134.91821289 C-14.24722916 134.92245773 -14.24722916 134.92245773 -15.43173218 134.92678833 C-17.90785071 134.93799786 -20.38360964 134.96310336 -22.85961914 134.98852539 C-24.53669726 134.99855421 -26.21378103 135.00768023 -27.89086914 135.01586914 C-32.00570301 135.03623961 -36.1197578 135.07538558 -40.23461914 135.11352539 C-40.23461914 124.88352539 -40.23461914 114.65352539 -40.23461914 104.11352539 C-50.34670639 104.15309476 -50.34670639 104.15309476 -60.45874023 104.20361328 C-62.33940186 104.20735962 -62.33940186 104.20735962 -64.25805664 104.21118164 C-65.54631348 104.21641846 -66.83457031 104.22165527 -68.16186523 104.22705078 C-71.23461914 104.11352539 -71.23461914 104.11352539 -73.23461914 103.11352539 C-75.71871556 92.73187716 -74.32593827 80.73042777 -74.23461914 70.11352539 C-69.73042473 69.96399536 -65.22605233 69.82233409 -60.72143555 69.6862793 C-59.20770481 69.63965001 -57.69402539 69.59130413 -56.18041992 69.54077148 C-38.8685927 68.96566672 -21.55351747 69.06447778 -4.23461914 69.11352539 C-4.23683975 68.26383682 -4.23906036 67.41414825 -4.24134827 66.53871155 C-4.26134928 58.54815814 -4.2765923 50.55761309 -4.28643131 42.56704044 C-4.2916596 38.45858254 -4.29875627 34.35014525 -4.31005859 30.24169922 C-4.32088939 26.28005711 -4.32689638 22.31843487 -4.32949638 18.3567791 C-4.33135029 16.84204228 -4.33497024 15.3273066 -4.3403492 13.8125782 C-4.34756221 11.69810726 -4.34860998 9.58371945 -4.34814453 7.46923828 C-4.35036514 6.2634462 -4.35258575 5.05765411 -4.35487366 3.81532288 C-4.17984651 -0.11706924 -4.01304901 0.14084593 0 0 Z " fill="#E9A47A" transform="translate(790.234619140625,509.886474609375)"/>
<path d="M0 0 C0.33 0 0.66 0 1 0 C1 10.89 1 21.78 1 33 C11.23 33 21.46 33 32 33 C31.67 66.99 31.34 100.98 31 136 C54.43 136 77.86 136 102 136 C102 146.89 102 157.78 102 169 C67.35 169 32.7 169 -3 169 C-3 158.11 -3 147.22 -3 136 C-2.01 136 -1.02 136 0 136 C-0.33 125.44 -0.66 114.88 -1 104 C-11.56 103.67 -22.12 103.34 -33 103 C-33 91.78 -33 80.56 -33 69 C-22.11 69 -11.22 69 0 69 C0 46.23 0 23.46 0 0 Z " fill="#E9A47A" transform="translate(442,511)"/>
<path d="M0 0 C22.77 0 45.54 0 69 0 C69 11.55 69 23.1 69 35 C58.44 35 47.88 35 37 35 C37 45.89 37 56.78 37 68 C47.89 68 58.78 68 70 68 C70 79.88 70 91.76 70 104 C47.56 104 25.12 104 2 104 C2 92.45 2 80.9 2 69 C-9.22 69 -20.44 69 -32 69 C-32 57.45 -32 45.9 -32 34 C-16.655 33.505 -16.655 33.505 -1 33 C-0.67 22.11 -0.34 11.22 0 0 Z " fill="#010000" transform="translate(611,476)"/>
<path d="M0 0 C11.22 0 22.44 0 34 0 C34 11.55 34 23.1 34 35 C45.22 35.33 56.44 35.66 68 36 C68 24.78 68 13.56 68 2 C57.44 2 46.88 2 36 2 C36 1.67 36 1.34 36 1 C46.89 1 57.78 1 69 1 C69 23.44 69 45.88 69 69 C103.32 69 137.64 69 173 69 C173 79.89 173 90.78 173 102 C138.35 102 103.7 102 68 102 C68 91.44 68 80.88 68 70 C45.56 70 23.12 70 0 70 C0 46.9 0 23.8 0 0 Z " fill="#E1936C" transform="translate(544,544)"/>
<path d="M0 0 C68.97 0 137.94 0 209 0 C209 10.89 209 21.78 209 33 C140.03 33 71.06 33 0 33 C0 22.11 0 11.22 0 0 Z " fill="#C27E63" transform="translate(405,851)"/>
<path d="M0 0 C19.60672228 -0.02284674 39.21343327 -0.04114984 58.82016563 -0.05181217 C67.93024561 -0.05690125 77.04031645 -0.063824 86.15039062 -0.07543945 C126.44707553 -0.12583196 166.71432492 -0.08132282 207 1 C207 11.56 207 22.12 207 33 C138.69 33 70.38 33 0 33 C0 22.11 0 11.22 0 0 Z " fill="#C27E63" transform="translate(407,715)"/>
<path d="M0 0 C1.18802719 0.00222061 2.37605438 0.00444122 3.6000824 0.00672913 C4.58053528 0.00651009 4.58053528 0.00651009 5.58079529 0.00628662 C7.75058766 0.00698569 9.92029517 0.01477774 12.09007263 0.02259827 C13.59079949 0.02446247 15.09152696 0.02588636 16.59225464 0.02688599 C20.54934865 0.03071099 24.50640616 0.04054112 28.46348572 0.05158997 C32.49851488 0.06180446 36.53354991 0.06638369 40.56858826 0.07142639 C48.49113108 0.08216341 56.41364419 0.09923962 64.33616638 0.12025452 C66.55977706 11.2383079 65.33616638 22.78202028 65.33616638 34.12025452 C88.10616638 34.12025452 110.87616638 34.12025452 134.33616638 34.12025452 C134.33616638 57.88025452 134.33616638 81.64025452 134.33616638 106.12025452 C123.44616638 106.12025452 112.55616638 106.12025452 101.33616638 106.12025452 C101.33616638 93.58025452 101.33616638 81.04025452 101.33616638 68.12025452 C89.78616638 68.12025452 78.23616638 68.12025452 66.33616638 68.12025452 C66.00616638 57.56025452 65.67616638 47.00025452 65.33616638 36.12025452 C42.56616638 35.79025452 19.79616638 35.46025452 -3.66383362 35.12025452 C-3.66383362 0.16539792 -3.66383362 0.16539792 0 0 Z " fill="#010101" transform="translate(720.6638336181641,917.8797454833984)"/>
<path d="M0 0 C11.22 0 22.44 0 34 0 C35.03841296 3.11523887 35.12326532 5.25712616 35.12025452 8.52384949 C35.12162918 9.67229843 35.12300385 10.82074738 35.12442017 12.0039978 C35.11902725 13.89536972 35.11902725 13.89536972 35.11352539 15.82495117 C35.11324334 17.1652781 35.11340161 18.50560517 35.1139679 19.84593201 C35.11425516 23.48614763 35.10836983 27.1263304 35.10139394 30.76653838 C35.09514866 34.57021274 35.09455567 38.37388783 35.09336853 42.17756653 C35.09025869 49.38108164 35.08204996 56.58458161 35.07201904 63.78809005 C35.06084715 71.98872702 35.05534474 80.1893647 35.05032361 88.39000738 C35.03986707 105.26001519 35.02152588 122.13000213 35 139 C23.45 139 11.9 139 0 139 C0 93.13 0 47.26 0 0 Z " fill="#020100" transform="translate(166,475)"/>
<path d="M0 0 C10.56 0 21.12 0 32 0 C32 9.9 32 19.8 32 30 C44.54 30 57.08 30 70 30 C70.10721537 54.44510501 69.87410004 78.87129744 69.5 103.3125 C69.48804218 104.09395889 69.47608437 104.87541779 69.46376419 105.68055725 C69.31378747 115.45377956 69.15906258 125.22692122 69 135 C64.03396287 135.16724111 59.06777322 135.32783783 54.10131836 135.48217773 C52.41050377 135.53567115 50.71974642 135.59100598 49.02905273 135.64819336 C46.60412953 135.72990041 44.17908006 135.80506395 41.75390625 135.87890625 C40.61327477 135.91945885 40.61327477 135.91945885 39.44960022 135.96083069 C37.63376666 136.01291299 35.81654157 136.01186585 34 136 C33 135 33 135 32.87695217 133.25274563 C32.87787396 132.48673566 32.87879576 131.72072569 32.87974548 130.9315033 C32.87837082 130.05505661 32.87699615 129.17860992 32.87557983 128.27560425 C32.88097275 126.82228195 32.88097275 126.82228195 32.88647461 125.33959961 C32.88632858 124.32508224 32.88618256 123.31056488 32.8860321 122.26530457 C32.88673171 118.89429627 32.89452632 115.52334246 32.90234375 112.15234375 C32.90420776 109.82206757 32.90563174 107.491791 32.90663147 105.16151428 C32.91045798 99.01462735 32.9202894 92.86776387 32.93133545 86.72088623 C32.94154671 80.45390134 32.94612848 74.18691268 32.95117188 67.91992188 C32.96191155 55.61326926 32.97950942 43.30664025 33 31 C22.11 31 11.22 31 0 31 C0 20.77 0 10.54 0 0 Z " fill="#4C5362" transform="translate(717,444)"/>
<path d="M0 0 C1.15048828 0.00322266 2.30097656 0.00644531 3.48632812 0.00976562 C4.66775391 0.01814453 5.84917969 0.02652344 7.06640625 0.03515625 C8.87915039 0.04192383 8.87915039 0.04192383 10.72851562 0.04882812 C13.69536414 0.0605548 16.66210895 0.07696729 19.62890625 0.09765625 C19.62890625 0.42765625 19.62890625 0.75765625 19.62890625 1.09765625 C8.93405965 2.06053633 -1.64241378 2.20713258 -12.37109375 2.09765625 C-12.33032715 3.02626465 -12.28956055 3.95487305 -12.24755859 4.91162109 C-12.10144041 8.35164829 -11.96456465 11.79178355 -11.83398438 15.23242188 C-11.77552521 16.72248113 -11.71336746 18.21240001 -11.64746094 19.70214844 C-11.55345319 21.84153689 -11.47268693 23.98107493 -11.39453125 26.12109375 C-11.34216309 27.40935059 -11.28979492 28.69760742 -11.23583984 30.02490234 C-11.37109375 33.09765625 -11.37109375 33.09765625 -13.37109375 35.09765625 C-13.70109375 45.98765625 -14.03109375 56.87765625 -14.37109375 68.09765625 C-47.37109375 68.09765625 -80.37109375 68.09765625 -114.37109375 68.09765625 C-114.70109375 57.20765625 -115.03109375 46.31765625 -115.37109375 35.09765625 C-115.70109375 34.76765625 -116.03109375 34.43765625 -116.37109375 34.09765625 C-116.45952205 31.64961858 -116.48645347 29.22920831 -116.46875 26.78125 C-116.46774292 26.13353638 -116.46673584 25.48582275 -116.46569824 24.81848145 C-116.46045218 22.39068846 -116.446491 19.96292064 -116.43359375 17.53515625 C-116.41296875 12.11078125 -116.39234375 6.68640625 -116.37109375 1.09765625 C-105.15109375 1.09765625 -93.93109375 1.09765625 -82.37109375 1.09765625 C-82.37109375 11.65765625 -82.37109375 22.21765625 -82.37109375 33.09765625 C-59.60109375 33.09765625 -36.83109375 33.09765625 -13.37109375 33.09765625 C-13.37109375 22.53765625 -13.37109375 11.97765625 -13.37109375 1.09765625 C-8.63971096 0.42174442 -4.68191348 -0.0232931 0 0 Z " fill="#EBA57A" transform="translate(557.37109375,475.90234375)"/>
<path d="M0 0 C11.22 0 22.44 0 34 0 C34.02284247 13.12036549 34.04108037 26.24071719 34.05181217 39.36109829 C34.05697 45.45729261 34.0639337 51.5534723 34.07543945 57.6496582 C34.12475297 84.45953744 34.015439 111.20680254 33 138 C22.11 138 11.22 138 0 138 C0 92.46 0 46.92 0 0 Z " fill="#E9A47A" transform="translate(202,476)"/>
<path d="M0 0 C11.22 0 22.44 0 34 0 C34 10.89 34 21.78 34 33 C56.77 33 79.54 33 103 33 C103 22.11 103 11.22 103 0 C113.89 0 124.78 0 136 0 C136 10.89 136 21.78 136 33 C119.665 33.495 119.665 33.495 103 34 C103 44.56 103 55.12 103 66 C80.23 66 57.46 66 34 66 C34 55.44 34 44.88 34 34 C29.48570312 34.0103125 24.97140625 34.020625 20.3203125 34.03125 C-2.99369904 34.04991264 -26.30547961 33.78014629 -49.61791992 33.53643799 C-55.54604834 33.4748457 -61.47419689 33.41525441 -67.40234375 33.35546875 C-78.93491576 33.23888028 -90.46746472 33.12016378 -102 33 C-102 32.67 -102 32.34 -102 32 C-68.34 32 -34.68 32 0 32 C0 21.44 0 10.88 0 0 Z " fill="#4E5462" transform="translate(441,443)"/>
<path d="M0 0 C10.89 0 21.78 0 33 0 C33 45.87 33 91.74 33 139 C22.11 139 11.22 139 0 139 C0 93.13 0 47.26 0 0 Z " fill="#000000" transform="translate(822,475)"/>
<path d="M0 0 C10.89 0 21.78 0 33 0 C33 34.32 33 68.64 33 104 C21.78 104 10.56 104 -1 104 C-1.02254861 90.58773907 -1.04091369 77.17549062 -1.05181217 63.76321507 C-1.0570416 57.53606528 -1.06414033 51.30892908 -1.07543945 45.08178711 C-1.08626621 39.07773135 -1.09227638 33.07368871 -1.09487724 27.06962395 C-1.09673188 24.7733839 -1.10035321 22.47714461 -1.10573006 20.18091011 C-1.11293768 16.97679186 -1.11399106 13.7727285 -1.11352539 10.56860352 C-1.11712067 9.60907272 -1.12071594 8.64954193 -1.12442017 7.66093445 C-1.1230455 6.79290192 -1.12167084 5.92486938 -1.12025452 5.03053284 C-1.12117631 4.27189721 -1.1220981 3.51326159 -1.12304783 2.731637 C-1 1 -1 1 0 0 Z " fill="#4B5262" transform="translate(237,475)"/>
<path d="M0 0 C1.43367789 0.04233077 2.86719443 0.0903537 4.30053711 0.14282227 C5.05378769 0.16643326 5.80703827 0.19004425 6.58311462 0.21437073 C8.99822015 0.2911835 11.41301906 0.37513123 13.82788086 0.45922852 C15.4613292 0.51243161 17.09479268 0.56517211 18.72827148 0.61743164 C22.74083687 0.74682227 26.7531413 0.88261399 30.76538086 1.02172852 C30.79118491 5.42032588 30.8087249 9.81887698 30.8203125 14.2175293 C30.82516992 15.69637826 30.83184642 17.17522302 30.84082031 18.65405273 C30.9379125 35.13687949 30.28088903 51.52546721 29.76538086 68.02172852 C7.65538086 68.02172852 -14.45461914 68.02172852 -37.23461914 68.02172852 C-37.23461914 56.47172852 -37.23461914 44.92172852 -37.23461914 33.02172852 C-32.22680819 32.39575215 -27.92321518 31.89835041 -22.98461914 31.92407227 C-21.33139648 31.92890625 -21.33139648 31.92890625 -19.64477539 31.93383789 C-18.51942383 31.9422168 -17.39407227 31.9505957 -16.23461914 31.95922852 C-14.50018555 31.96599609 -14.50018555 31.96599609 -12.73071289 31.97290039 C-9.89862689 31.98460323 -7.06665103 32.00099855 -4.23461914 32.02172852 C-4.23985596 31.0878833 -4.24509277 30.15403809 -4.25048828 29.19189453 C-4.26749534 25.73860055 -4.28005216 22.28535084 -4.28955078 18.83203125 C-4.29459035 17.33527933 -4.30142201 15.83853236 -4.31005859 14.34179688 C-4.32214073 12.19473045 -4.32785105 10.0477289 -4.33227539 7.90063477 C-4.33751221 6.60714111 -4.34274902 5.31364746 -4.34814453 3.98095703 C-4.18960305 -0.15169098 -4.18398825 0.02810589 0 0 Z " fill="#000000" transform="translate(685.234619140625,340.978271484375)"/>
<path d="M0 0 C34.65 0 69.3 0 105 0 C105 10.89 105 21.78 105 33 C70.35 33 35.7 33 0 33 C0 22.11 0 11.22 0 0 Z " fill="#C27E63" transform="translate(439,647)"/>
<path d="M0 0 C11.22 0 22.44 0 34 0 C34 22.77 34 45.54 34 69 C44.89 69 55.78 69 67 69 C67 79.23 67 89.46 67 100 C55.78 100 44.56 100 33 100 C33 89.77 33 79.54 33 69 C21.78 69 10.56 69 -1 69 C-1.04010881 52.93865013 -1.04010881 52.93865013 -1.04882812 46.08984375 C-1.05480478 41.41746891 -1.06187371 36.74511368 -1.07543945 32.07275391 C-1.08630847 28.30561356 -1.09228537 24.53849424 -1.09487724 20.77133942 C-1.09672424 19.33444131 -1.10033095 17.89754436 -1.10573006 16.46065521 C-1.11299363 14.44741438 -1.11340851 12.43415237 -1.11352539 10.42089844 C-1.115746 9.27506287 -1.11796661 8.12922729 -1.12025452 6.94866943 C-1 4 -1 4 0 0 Z " fill="#010100" transform="translate(238,647)"/>
<path d="M0 0 C10.56 0 21.12 0 32 0 C32 10.89 32 21.78 32 33 C65.66 33 99.32 33 134 33 C134 33.33 134 33.66 134 34 C123.11 34 112.22 34 101 34 C101 44.89 101 55.78 101 67 C78.23 67 55.46 67 32 67 C32 56.11 32 45.22 32 34 C21.11 34 10.22 34 -1 34 C-0.67 33.34 -0.34 32.68 0 32 C0.08638888 29.59188686 0.11575201 27.21242109 0.09765625 24.8046875 C0.09515869 23.51030762 0.09266113 22.21592773 0.09008789 20.88232422 C0.08098389 19.22990723 0.07187988 17.57749023 0.0625 15.875 C0.041875 10.63625 0.02125 5.3975 0 0 Z " fill="#E4A27B" transform="translate(443,409)"/>
<path d="M0 0 C0.99 0.495 0.99 0.495 2 1 C2 12.55 2 24.1 2 36 C12.23 36 22.46 36 33 36 C33.64109781 43.69317367 34.13784098 51.07681125 34.0625 58.75 C34.05798828 59.64976562 34.05347656 60.54953125 34.04882812 61.4765625 C34.03726159 63.65107182 34.01933803 65.82554591 34 68 C34.66 68.33 35.32 68.66 36 69 C1.68 69 -32.64 69 -68 69 C-68 58.11 -68 47.22 -68 36 C-45.56 36 -23.12 36 0 36 C0 24.12 0 12.24 0 0 Z " fill="#F3BF95" transform="translate(681,544)"/>
<path d="M0 0 C1.19269312 0.00128403 1.19269312 0.00128403 2.40948105 0.00259399 C12.37718634 0.0141106 22.34480982 0.03722268 32.3125 0.0625 C32.3125 10.9525 32.3125 21.8425 32.3125 33.0625 C-2.0075 33.0625 -36.3275 33.0625 -71.6875 33.0625 C-71.6875 22.5025 -71.6875 11.9425 -71.6875 1.0625 C-47.78058675 0.15607675 -23.9195296 -0.02593254 0 0 Z " fill="#4D5362" transform="translate(684.6875,612.9375)"/>
<path d="M0 0 C33.99 0 67.98 0 103 0 C102.67 10.89 102.34 21.78 102 33 C68.34 33 34.68 33 0 33 C0 22.11 0 11.22 0 0 Z " fill="#4C5262" transform="translate(305,614)"/>
<path d="M0 0 C0.33 0 0.66 0 1 0 C1 12.21 1 24.42 1 37 C23.44 37 45.88 37 69 37 C69 47.23 69 57.46 69 68 C52.91019222 69.14927198 52.91019222 69.14927198 45.1015625 69.09765625 C44.25572601 69.0962413 43.40988953 69.09482635 42.53842163 69.09336853 C39.9005746 69.08787881 37.2628203 69.07534968 34.625 69.0625 C32.80989708 69.05747067 30.9947928 69.05291032 29.1796875 69.04882812 C24.78642392 69.03794598 20.39322754 69.02076194 16 69 C16 69.33 16 69.66 16 70 C13.47909222 70.0272367 10.95848543 70.04695207 8.4375 70.0625 C7.73302734 70.07087891 7.02855469 70.07925781 6.30273438 70.08789062 C3.0518385 70.10287171 0.00632923 70.00092173 -3.21875 69.53125 C-8.77431742 68.75071574 -14.33506078 68.63201652 -19.9375 68.4375 C-23.918125 68.293125 -27.89875 68.14875 -32 68 C-32 57.44 -32 46.88 -32 36 C-16.655 35.505 -16.655 35.505 -1 35 C-0.67 23.45 -0.34 11.9 0 0 Z " fill="#F2BD93" transform="translate(339,544)"/>
<path d="M0 0 C11.88 0 23.76 0 36 0 C36.04010881 16.93037407 36.04010881 16.93037407 36.04882812 24.12304688 C36.05481601 29.03931756 36.06191484 33.95556969 36.07543945 38.87182617 C36.08627025 42.83346828 36.09227724 46.79509052 36.09487724 50.75674629 C36.09673114 52.27148311 36.1003511 53.78621879 36.10573006 55.30094719 C36.11294307 57.41541813 36.11399083 59.52980594 36.11352539 61.64428711 C36.115746 62.85007919 36.11796661 64.05587128 36.12025452 65.29820251 C36 68 36 68 35 69 C32.40665852 69.0885067 29.83937421 69.1153317 27.24609375 69.09765625 C26.55906372 69.09664917 25.87203369 69.09564209 25.16418457 69.09460449 C22.58860616 69.08935776 20.01305147 69.07539659 17.4375 69.0625 C11.683125 69.041875 5.92875 69.02125 0 69 C0 46.23 0 23.46 0 0 Z " fill="#020101" transform="translate(750,646)"/>
<path d="M0 0 C0 10.89 0 21.78 0 33 C-4.39552376 34.7582095 -6.60437195 35.28872017 -11.14453125 35.44921875 C-12.97431519 35.51520264 -12.97431519 35.51520264 -14.84106445 35.58251953 C-16.80692505 35.63448486 -16.80692505 35.63448486 -18.8125 35.6875 C-19.48308441 35.70746033 -20.15366882 35.72742065 -20.84457397 35.74798584 C-31.84387212 36.0680115 -42.81508926 35.97045276 -53.8125 35.625 C-54.51484772 35.60376068 -55.21719543 35.58252136 -55.94082642 35.56063843 C-67.61859374 35.19070313 -67.61859374 35.19070313 -70 34 C-72.48409642 23.61835177 -71.09131913 11.61690238 -71 1 C-47.31721597 0.14204386 -23.70103023 -0.09046195 0 0 Z " fill="#DA926D" transform="translate(787,579)"/>
<path d="M0 0 C10.56 0 21.12 0 32 0 C32.16546254 4.68131723 32.32784771 9.36252287 32.48217773 14.04418945 C32.53566794 15.63800256 32.59100255 17.23175485 32.64819336 18.82543945 C32.72990942 21.11135742 32.80506897 23.39740946 32.87890625 25.68359375 C32.90594131 26.40026718 32.93297638 27.11694061 32.96083069 27.85533142 C33.01297644 29.56947767 33.01185628 31.28510176 33 33 C32 34 32 34 29.04077148 34.11352539 C27.74727783 34.10828857 26.45378418 34.10305176 25.12109375 34.09765625 C23.86482178 34.09515869 22.6085498 34.09266113 21.31420898 34.09008789 C19.70489502 34.08098389 18.09558105 34.07187988 16.4375 34.0625 C11.343125 34.041875 6.24875 34.02125 1 34 C1.33 45.55 1.66 57.1 2 69 C17.84 69.495 17.84 69.495 34 70 C34 81.22 34 92.44 34 104 C28.76125 104.020625 23.5225 104.04125 18.125 104.0625 C16.47258301 104.071604 14.82016602 104.08070801 13.11767578 104.09008789 C11.8232959 104.09258545 10.52891602 104.09508301 9.1953125 104.09765625 C8.51460693 104.10277222 7.83390137 104.10788818 7.13256836 104.11315918 C2.2281436 104.1140718 2.2281436 104.1140718 0 103 C0 91.45 0 79.9 0 68 C-11.22 68 -22.44 68 -34 68 C-34 67.67 -34 67.34 -34 67 C-22.78 67 -11.56 67 0 67 C-0.185625 61.885 -0.37125 56.77 -0.5625 51.5 C-1.11912552 34.26671029 -0.7018351 17.23395072 0 0 Z " fill="#F2BE94" transform="translate(578,476)"/>
<path d="M0 0 C11.22 0 22.44 0 34 0 C34 21.78 34 43.56 34 66 C23.11 66 12.22 66 1 66 C0 65 0 65 -0.12025452 62.41209412 C-0.11803391 61.25959671 -0.11581329 60.1070993 -0.11352539 58.91967773 C-0.11344986 57.61840439 -0.11337433 56.31713104 -0.11329651 54.97642517 C-0.10818909 53.54548098 -0.10297308 52.11453718 -0.09765625 50.68359375 C-0.09579203 49.2277074 -0.09436815 47.77182043 -0.09336853 46.31593323 C-0.08954365 42.47720621 -0.07971364 38.63851681 -0.06866455 34.79980469 C-0.05665498 30.19764229 -0.05204804 25.59546734 -0.04621124 20.99329376 C-0.03650185 13.99550298 -0.01734513 6.9977948 0 0 Z " fill="#E9A479" transform="translate(715,377)"/>
<path d="M0 0 C22.77 0 45.54 0 69 0 C69 10.56 69 21.12 69 32 C45.9 32 22.8 32 -1 32 C-0.67 21.44 -0.34 10.88 0 0 Z " fill="#E8A379" transform="translate(475,783)"/>
<path d="M0 0 C11.22 0 22.44 0 34 0 C34 22.11 34 44.22 34 67 C23.44 67 12.88 67 2 67 C1.93941406 64.62941406 1.87882812 62.25882813 1.81640625 59.81640625 C1.75466102 57.52950709 1.69125508 55.24265963 1.62768555 52.95581055 C1.58427854 51.362107 1.54260781 49.7683552 1.50268555 48.17456055 C1.44512193 45.88836092 1.38138851 43.60240551 1.31640625 41.31640625 C1.29969376 40.59973282 1.28298126 39.88305939 1.26576233 39.14466858 C1.44981346 35.78472618 1.44981346 35.78472618 0 33 C-0.0884283 30.55196233 -0.11535972 28.13155206 -0.09765625 25.68359375 C-0.09664917 25.03588013 -0.09564209 24.3881665 -0.09460449 23.7208252 C-0.08935843 21.29303221 -0.07539725 18.86526439 -0.0625 16.4375 C-0.041875 11.013125 -0.02125 5.58875 0 0 Z " fill="#E8A378" transform="translate(441,477)"/>
<path d="M0 0 C10.56 0 21.12 0 32 0 C32.60318141 17.3414656 33.10447902 34.64904907 33.125 52 C33.12749756 52.75045593 33.12999512 53.50091187 33.13256836 54.27410889 C33.13838992 56.3911212 33.13701515 58.50798657 33.1328125 60.625 C33.13168457 61.83414063 33.13055664 63.04328125 33.12939453 64.2890625 C33 67 33 67 32 68 C21.44 68 10.88 68 0 68 C0 45.56 0 23.12 0 0 Z " fill="#EAA479" transform="translate(272,376)"/>
<path d="M0 0 C16.335 0.495 16.335 0.495 33 1 C33 23.11 33 45.22 33 68 C22.44 68 11.88 68 1 68 C0.67 45.56 0.34 23.12 0 0 Z " fill="#E8A379" transform="translate(716,646)"/>
<path d="M0 0 C10.56 0 21.12 0 32 0 C32 21.12 32 42.24 32 64 C21.44 64 10.88 64 0 64 C0 42.88 0 21.76 0 0 Z " fill="#E9A47A" transform="translate(614,851)"/>
<path d="M0 0 C10.23 0 20.46 0 31 0 C31 21.78 31 43.56 31 66 C20.77 66 10.54 66 0 66 C0 44.22 0 22.44 0 0 Z " fill="#E9A379" transform="translate(273,647)"/>
<path d="M0 0 C20.79 0 41.58 0 63 0 C63 10.56 63 21.12 63 32 C42.54 32 22.08 32 1 32 C0.67 21.44 0.34 10.88 0 0 Z " fill="#E9A47A" transform="translate(476,275)"/>
<path d="M0 0 C5.40375 -0.020625 10.8075 -0.04125 16.375 -0.0625 C18.07962402 -0.071604 19.78424805 -0.08070801 21.54052734 -0.09008789 C22.88899659 -0.09300802 24.23746672 -0.09555635 25.5859375 -0.09765625 C26.63938354 -0.1053302 26.63938354 -0.1053302 27.71411133 -0.11315918 C32.7718564 -0.1140718 32.7718564 -0.1140718 35 1 C35 46.87 35 92.74 35 140 C34.34 139.67 33.68 139.34 33 139 C33.33 105.01 33.66 71.02 34 36 C22.78 36 11.56 36 0 36 C0 24.12 0 12.24 0 0 Z " fill="#F4C397" transform="translate(787,474)"/>
<path d="M0 0 C11.22 0 22.44 0 34 0 C34 33.99 34 67.98 34 103 C33.67 103 33.34 103 33 103 C33 80.89 33 58.78 33 36 C22.11 36 11.22 36 0 36 C0 24.12 0 12.24 0 0 Z " fill="#F4BF94" transform="translate(202,476)"/>
<path d="M0 0 C16.335 0.495 16.335 0.495 33 1 C33 11.23 33 21.46 33 32 C44.55 32 56.1 32 68 32 C68 21.44 68 10.88 68 0 C68.33 0 68.66 0 69 0 C69 10.89 69 21.78 69 33 C57.12 33 45.24 33 33 33 C33 55.77 33 78.54 33 102 C21.45 102 9.9 102 -2 102 C-2 101.67 -2 101.34 -2 101 C9.22 101 20.44 101 32 101 C32 78.89 32 56.78 32 34 C21.77 34 11.54 34 1 34 C0 33 0 33 -0.11352539 29.85717773 C-0.11327441 28.46597304 -0.10771709 27.07476209 -0.09765625 25.68359375 C-0.09664917 25.03588013 -0.09564209 24.3881665 -0.09460449 23.7208252 C-0.08935843 21.29303221 -0.07539725 18.86526439 -0.0625 16.4375 C-0.041875 11.013125 -0.02125 5.58875 0 0 Z " fill="#F5C497" transform="translate(717,613)"/>
<path d="M0 0 C11.55 0 23.1 0 35 0 C35 11.55 35 23.1 35 35 C29.410625 35.020625 23.82125 35.04125 18.0625 35.0625 C16.29656494 35.071604 14.53062988 35.08070801 12.71118164 35.09008789 C11.31917395 35.09300714 9.92716541 35.09555567 8.53515625 35.09765625 C7.80615112 35.10277222 7.077146 35.10788818 6.3260498 35.11315918 C4.55029924 35.11347011 2.77465792 35.06228515 1 35 C0 34 0 34 -0.11352539 30.76538086 C-0.11327438 29.33185875 -0.10771608 27.89833058 -0.09765625 26.46484375 C-0.09664917 25.79747192 -0.09564209 25.1301001 -0.09460449 24.44250488 C-0.08935808 21.9408192 -0.07539691 19.43915794 -0.0625 16.9375 C-0.041875 11.348125 -0.02125 5.75875 0 0 Z " fill="#000000" transform="translate(681,510)"/>
<path d="M0 0 C11.22 0 22.44 0 34 0 C34 11.55 34 23.1 34 35 C22.78 35 11.56 35 0 35 C0 23.45 0 11.9 0 0 Z " fill="#495161" transform="translate(544,544)"/>
<path d="M0 0 C11.88 0 23.76 0 36 0 C36 10.89 36 21.78 36 33 C24.12 33 12.24 33 0 33 C0 22.11 0 11.22 0 0 Z " fill="#C27F64" transform="translate(508,443)"/>
<path d="M0 0 C11.88 0 23.76 0 36 0 C36.020625 5.259375 36.04125 10.51875 36.0625 15.9375 C36.071604 17.599021 36.08070801 19.26054199 36.09008789 20.97241211 C36.09258545 22.26928955 36.09508301 23.56616699 36.09765625 24.90234375 C36.10277222 25.58816528 36.10788818 26.27398682 36.11315918 26.98059082 C36.11347054 28.65415231 36.06222837 30.3275958 36 32 C35 33 35 33 31.67358398 33.11352539 C30.19774444 33.11336629 28.72189931 33.10767314 27.24609375 33.09765625 C26.47064713 33.0962413 25.6952005 33.09482635 24.89625549 33.09336853 C22.40996506 33.08775345 19.9237634 33.07519846 17.4375 33.0625 C15.75586067 33.05748694 14.07421994 33.0529237 12.39257812 33.04882812 C8.26165671 33.03862832 4.13092818 33.01905605 0 33 C0 22.11 0 11.22 0 0 Z " fill="#030202" transform="translate(201,614)"/>
<path d="M0 0 C0.33 0 0.66 0 1 0 C1 10.56 1 21.12 1 32 C12.55 32 24.1 32 36 32 C36 32.33 36 32.66 36 33 C24.45 33 12.9 33 1 33 C1 44.55 1 56.1 1 68 C-9.89 68 -20.78 68 -32 68 C-32 57.11 -32 46.22 -32 35 C-21.44 35 -10.88 35 0 35 C0 23.45 0 11.9 0 0 Z " fill="#FBFBF8" transform="translate(680,476)"/>
<path d="M0 0 C11.22 0 22.44 0 34 0 C34 11.22 34 22.44 34 34 C22.78 34 11.56 34 0 34 C0 22.78 0 11.56 0 0 Z " fill="#495162" transform="translate(271,580)"/>
<path d="M0 0 C11.22 0 22.44 0 34 0 C34 11.22 34 22.44 34 34 C22.78 34 11.56 34 0 34 C0 22.78 0 11.56 0 0 Z " fill="#FEFDFD" transform="translate(305,476)"/>
<path d="M0 0 C0.33 0 0.66 0 1 0 C1 10.89 1 21.78 1 33 C11.23 33 21.46 33 32 33 C31.67 44.88 31.34 56.76 31 69 C20.77 69 10.54 69 0 69 C0 46.23 0 23.46 0 0 Z " fill="#4C5261" transform="translate(442,511)"/>
<path d="M0 0 C11.22 0.33 22.44 0.66 34 1 C34 11.89 34 22.78 34 34 C28.575625 34.020625 23.15125 34.04125 17.5625 34.0625 C15.84877197 34.071604 14.13504395 34.08070801 12.36938477 34.09008789 C11.01839273 34.09300716 9.66739981 34.09555569 8.31640625 34.09765625 C7.60899292 34.10277222 6.90157959 34.10788818 6.17272949 34.11315918 C4.44807383 34.11347032 2.72353162 34.06225761 1 34 C0 33 0 33 -0.11352539 29.85717773 C-0.11327441 28.46597304 -0.10771709 27.07476209 -0.09765625 25.68359375 C-0.09664917 25.03588013 -0.09564209 24.3881665 -0.09460449 23.7208252 C-0.08935843 21.29303221 -0.07539725 18.86526439 -0.0625 16.4375 C-0.041875 11.013125 -0.02125 5.58875 0 0 Z " fill="#040404" transform="translate(786,613)"/>
<path d="M0 0 C0.33 0 0.66 0 1 0 C1 22.44 1 44.88 1 68 C11.89 67.67 22.78 67.34 34 67 C34 77.56 34 88.12 34 99 C22.78 99 11.56 99 0 99 C0 66.33 0 33.66 0 0 Z " fill="#4D515F" transform="translate(271,376)"/>
<path d="M0 0 C5.424375 -0.020625 10.84875 -0.04125 16.4375 -0.0625 C18.15122803 -0.071604 19.86495605 -0.08070801 21.63061523 -0.09008789 C22.98160727 -0.09300716 24.33260019 -0.09555569 25.68359375 -0.09765625 C26.39100708 -0.10277222 27.09842041 -0.10788818 27.82727051 -0.11315918 C29.55192617 -0.11347032 31.27646838 -0.06225761 33 0 C34 1 34 1 34.11352539 4.05102539 C34.11327443 5.39991269 34.10771815 6.74880645 34.09765625 8.09765625 C34.09515869 9.39453369 34.09266113 10.69141113 34.09008789 12.02758789 C34.08098389 13.68910889 34.07187988 15.35062988 34.0625 17.0625 C34.041875 22.321875 34.02125 27.58125 34 33 C22.78 33 11.56 33 0 33 C0 22.11 0 11.22 0 0 Z " fill="#010000" transform="translate(683,748)"/>
<path d="M0 0 C1.3912047 0.00025098 2.78241565 0.0058083 4.17358398 0.01586914 C4.82129761 0.01687622 5.46901123 0.0178833 6.13635254 0.0189209 C8.56414552 0.02416696 10.99191334 0.03812814 13.41967773 0.05102539 C21.55624023 0.08196289 21.55624023 0.08196289 29.85717773 0.11352539 C29.85717773 11.00352539 29.85717773 21.89352539 29.85717773 33.11352539 C18.63717773 33.11352539 7.41717773 33.11352539 -4.14282227 33.11352539 C-4.16344727 27.85415039 -4.18407227 22.59477539 -4.20532227 17.17602539 C-4.21442627 15.51450439 -4.22353027 13.8529834 -4.23291016 12.14111328 C-4.23540771 10.84423584 -4.23790527 9.5473584 -4.24047852 8.21118164 C-4.24815247 7.18244934 -4.24815247 7.18244934 -4.25598145 6.13293457 C-4.25629281 4.45937308 -4.20505064 2.78592959 -4.14282227 1.11352539 C-3.14282227 0.11352539 -3.14282227 0.11352539 0 0 Z " fill="#030303" transform="translate(308.142822265625,747.886474609375)"/>
<path d="M0 0 C10.56 0 21.12 0 32 0 C32 11.55 32 23.1 32 35 C24.3584375 35.2784375 24.3584375 35.2784375 16.5625 35.5625 C14.95318604 35.62381104 13.34387207 35.68512207 11.68579102 35.74829102 C9.80138306 35.81294556 9.80138306 35.81294556 7.87890625 35.87890625 C6.5854126 35.9260376 5.29191895 35.97316895 3.95922852 36.02172852 C1 36 1 36 0 35 C-0.08851529 32.40640678 -0.11525945 29.83960309 -0.09765625 27.24609375 C-0.09553383 26.08292381 -0.09553383 26.08292381 -0.09336853 24.89625549 C-0.08775345 22.40996506 -0.07519846 19.9237634 -0.0625 17.4375 C-0.05748694 15.75586067 -0.0529237 14.07421994 -0.04882812 12.39257812 C-0.03862832 8.26165671 -0.01905605 4.13092818 0 0 Z " fill="#24232A" transform="translate(475,239)"/>
<path d="M0 0 C1.39120471 0.00015906 2.78241534 0.00585033 4.17358398 0.01586914 C4.90463852 0.01728409 5.63569305 0.01869904 6.38890076 0.02015686 C8.73253406 0.02577131 11.07607313 0.03832617 13.41967773 0.05102539 C15.00496282 0.05603853 16.59024939 0.06060176 18.17553711 0.06469727 C22.06945383 0.07574542 25.96329979 0.09301967 29.85717773 0.11352539 C30.59016412 7.7193954 30.99469146 15.22366618 30.91967773 22.86352539 C30.91516602 23.76329102 30.9106543 24.66305664 30.90600586 25.59008789 C30.89443932 27.76459721 30.87651576 29.9390713 30.85717773 32.11352539 C26.03356174 32.2807724 21.20978862 32.44136847 16.38574219 32.59570312 C14.7434284 32.64919498 13.10117358 32.7045297 11.45898438 32.76171875 C9.10356367 32.84343018 6.74801292 32.91859178 4.39233398 32.99243164 C3.65378677 33.01946671 2.91523956 33.04650177 2.15431213 33.07435608 C0.38932157 33.12646919 -1.37710237 33.12538659 -3.14282227 33.11352539 C-5.05132174 31.20502592 -4.2734186 27.79873765 -4.27563477 25.26977539 C-4.27659149 24.58548462 -4.27754822 23.90119385 -4.27853394 23.19616699 C-4.27921556 21.74690662 -4.27736249 20.29764321 -4.27319336 18.84838867 C-4.26784479 16.62289611 -4.27313886 14.39760538 -4.27954102 12.17211914 C-4.27888023 10.76717078 -4.27759906 9.36222254 -4.27563477 7.95727539 C-4.27450684 6.67014648 -4.27337891 5.38301758 -4.2722168 4.05688477 C-4.0934803 -0.00886464 -4.10016304 0.14810657 0 0 Z " fill="#2C2C31" transform="translate(377.142822265625,205.886474609375)"/>
<path d="M0 0 C11.22 0 22.44 0 34 0 C34 10.89 34 21.78 34 33 C23.11 33 12.22 33 1 33 C-0.125 20.625 -0.125 20.625 -0.09765625 16.11328125 C-0.09390991 14.8145105 -0.09390991 14.8145105 -0.09008789 13.48950195 C-0.08098389 12.44109131 -0.07187988 11.39268066 -0.0625 10.3125 C-0.041875 6.909375 -0.02125 3.50625 0 0 Z " fill="#4A5162" transform="translate(716,580)"/>
<path d="M0 0 C10.56 0 21.12 0 32 0 C32 22.11 32 44.22 32 67 C31.67 67 31.34 67 31 67 C31 55.78 31 44.56 31 33 C20.77 33 10.54 33 0 33 C0 22.11 0 11.22 0 0 Z " fill="#DF926B" transform="translate(443,477)"/>
<path d="M0 0 C10.56 0 21.12 0 32 0 C32.16546254 4.68131723 32.32784771 9.36252287 32.48217773 14.04418945 C32.53566794 15.63800256 32.59100255 17.23175485 32.64819336 18.82543945 C32.72990942 21.11135742 32.80506897 23.39740946 32.87890625 25.68359375 C32.90594131 26.40026718 32.93297638 27.11694061 32.96083069 27.85533142 C33.01297644 29.56947767 33.01185628 31.28510176 33 33 C32 34 32 34 28.94897461 34.11352539 C27.60008729 34.11336634 26.25119386 34.10767612 24.90234375 34.09765625 C23.83905602 34.09553383 23.83905602 34.09553383 22.75428772 34.09336853 C20.48198288 34.08775443 18.20977525 34.07519963 15.9375 34.0625 C14.40039204 34.05748681 12.86328255 34.05292359 11.32617188 34.04882812 C7.55074358 34.03778042 3.77538829 34.02050641 0 34 C-1.48705173 31.02589653 -1.00631896 28.05207808 -0.87890625 24.8046875 C-0.83580322 23.51030762 -0.7927002 22.21592773 -0.74829102 20.88232422 C-0.68697998 19.22990723 -0.62566895 17.57749023 -0.5625 15.875 C-0.376875 10.63625 -0.19125 5.3975 0 0 Z " fill="#FEFDFD" transform="translate(578,476)"/>
<path d="M0 0 C11.22 0 22.44 0 34 0 C34 10.56 34 21.12 34 32 C22.78 32 11.56 32 0 32 C0 21.44 0 10.88 0 0 Z " fill="#040303" transform="translate(716,715)"/>
<path d="M0 0 C10.56 0 21.12 0 32 0 C32 11.22 32 22.44 32 34 C21.44 34 10.88 34 0 34 C0 22.78 0 11.56 0 0 Z " fill="#495162" transform="translate(409,580)"/>
<path d="M0 0 C10.89 0 21.78 0 33 0 C33 10.89 33 21.78 33 33 C27.740625 33.020625 22.48125 33.04125 17.0625 33.0625 C15.400979 33.071604 13.73945801 33.08070801 12.02758789 33.09008789 C10.73071045 33.09258545 9.43383301 33.09508301 8.09765625 33.09765625 C7.41183472 33.10277222 6.72601318 33.10788818 6.01940918 33.11315918 C4.34584769 33.11347054 2.6724042 33.06222837 1 33 C0 32 0 32 -0.11352539 28.94897461 C-0.11327443 27.60008731 -0.10771815 26.25119355 -0.09765625 24.90234375 C-0.09515869 23.60546631 -0.09266113 22.30858887 -0.09008789 20.97241211 C-0.08098389 19.31089111 -0.07187988 17.64937012 -0.0625 15.9375 C-0.041875 10.678125 -0.02125 5.41875 0 0 Z " fill="#FAFAFA" transform="translate(375,511)"/>
<path d="M0 0 C4.888125 -0.020625 9.77625 -0.04125 14.8125 -0.0625 C16.35139893 -0.071604 17.89029785 -0.08070801 19.47583008 -0.09008789 C20.68650146 -0.09258545 21.89717285 -0.09508301 23.14453125 -0.09765625 C24.38565674 -0.10289307 25.62678223 -0.10812988 26.90551758 -0.11352539 C30 0 30 0 33 1 C33 11.56 33 22.12 33 33 C22.11 33 11.22 33 0 33 C0 22.11 0 11.22 0 0 Z " fill="#4A5262" transform="translate(579,580)"/>
<path d="M0 0 C10.56 0 21.12 0 32 0 C32 10.89 32 21.78 32 33 C21.44 33 10.88 33 0 33 C0 22.11 0 11.22 0 0 Z " fill="#495061" transform="translate(545,443)"/>
<path d="M0 0 C10.56 0 21.12 0 32 0 C32 10.89 32 21.78 32 33 C21.44 33 10.88 33 0 33 C0 22.11 0 11.22 0 0 Z " fill="#F4C095" transform="translate(475,443)"/>
<path d="M0 0 C10.89 0 21.78 0 33 0 C33 10.56 33 21.12 33 32 C22.11 32 11.22 32 0 32 C0 21.44 0 10.88 0 0 Z " fill="#DE936C" transform="translate(543,409)"/>
<path d="M0 0 C10.23 0 20.46 0 31 0 C31 10.89 31 21.78 31 33 C15.655 33.495 15.655 33.495 0 34 C0 22.78 0 11.56 0 0 Z " fill="#E3966E" transform="translate(441,580)"/>
<path d="M0 0 C0.66386719 -0.00386719 1.32773438 -0.00773438 2.01171875 -0.01171875 C6.46576254 -0.00300242 10.39941362 0.48563052 14.875 1.125 C14.875 11.355 14.875 21.585 14.875 32.125 C0.625 32.5625 0.625 32.5625 -3.85253906 32.69311523 C-5.02010742 32.73122314 -6.18767578 32.76933105 -7.390625 32.80859375 C-9.18161621 32.86358032 -9.18161621 32.86358032 -11.00878906 32.91967773 C-14.30574351 33.04394104 -14.30574351 33.04394104 -18.125 34.125 C-17.795 23.235 -17.465 12.345 -17.125 1.125 C-11.2156604 0.46840671 -5.87445793 -0.011496 0 0 Z " fill="#EAA57B" transform="translate(254.125,612.875)"/>
<path d="M0 0 C9.9 0 19.8 0 30 0 C30 10.56 30 21.12 30 32 C20.1 32 10.2 32 0 32 C0 21.44 0 10.88 0 0 Z " fill="#DF936C" transform="translate(717,378)"/>
<path d="M0 0 C9.57 0 19.14 0 29 0 C29.185625 4.74375 29.37125 9.4875 29.5625 14.375 C29.62381104 15.8707959 29.68512207 17.3665918 29.74829102 18.90771484 C29.79139404 20.08027832 29.83449707 21.2528418 29.87890625 22.4609375 C29.9260376 23.66540527 29.97316895 24.86987305 30.02172852 26.11083984 C30 29 30 29 29 31 C19.43 31.33 9.86 31.66 0 32 C0 21.44 0 10.88 0 0 Z " fill="#DF936C" transform="translate(273,378)"/>
<path d="M0 0 C0 10.56 0 21.12 0 32 C22.11 32 44.22 32 67 32 C67 32.66 67 33.32 67 34 C44.23 34 21.46 34 -2 34 C-2 23.11 -2 12.22 -2 1 C-49.19 1 -96.38 1 -145 1 C-145 0.67 -145 0.34 -145 0 C-126.38970266 -0.15380378 -107.77936803 -0.30183969 -89.16897011 -0.4429636 C-80.52831249 -0.50862154 -71.88767753 -0.5761841 -63.24707031 -0.64819336 C-55.71803649 -0.71093417 -48.18898469 -0.77013922 -40.65988958 -0.82505554 C-36.67139199 -0.85427179 -32.68292632 -0.88528759 -28.69447708 -0.92053413 C-24.94354863 -0.95362589 -21.19261459 -0.98200452 -17.44162178 -1.00670624 C-16.06209884 -1.01663314 -14.68258726 -1.02830926 -13.30309486 -1.04183006 C-11.42521652 -1.05997879 -9.54727609 -1.0713288 -7.66934204 -1.08229065 C-6.09031066 -1.09473485 -6.09031066 -1.09473485 -4.47937965 -1.10743046 C-2 -1 -2 -1 0 0 Z " fill="#D8D7D8" transform="translate(683,68)"/>
<path d="M0 0 C10.89 0 21.78 0 33 0 C33 22.44 33 44.88 33 68 C44.55 68 56.1 68 68 68 C68 68.33 68 68.66 68 69 C56.45 69 44.9 69 33 69 C33 79.56 33 90.12 33 101 C32.67 101 32.34 101 32 101 C32 90.44 32 79.88 32 69 C9.56 69 -12.88 69 -36 69 C-36 57.45 -36 45.9 -36 34 C-24.12 34 -12.24 34 0 34 C-0.33 45.22 -0.66 56.44 -1 68 C9.89 68 20.78 68 32 68 C32 57.44 32 46.88 32 36 C30.515 35.505 30.515 35.505 29 35 C29.99 35 30.98 35 32 35 C32 23.78 32 12.56 32 1 C21.44 1 10.88 1 0 1 C0 0.67 0 0.34 0 0 Z M-35 35 C-35 45.89 -35 56.78 -35 68 C-24.11 68 -13.22 68 -2 68 C-2 57.11 -2 46.22 -2 35 C-12.89 35 -23.78 35 -35 35 Z " fill="#997A6E" transform="translate(580,545)"/>
<path d="M0 0 C0.33 0 0.66 0 1 0 C1.33 11.55 1.66 23.1 2 35 C17.84 35.495 17.84 35.495 34 36 C34 47.22 34 58.44 34 70 C33.67 70 33.34 70 33 70 C33 59.11 33 48.22 33 37 C22.77 37 12.54 37 2 37 C2 47.23 2 57.46 2 68 C4.31 68 6.62 68 9 68 C9 68.33 9 68.66 9 69 C6.03 69 3.06 69 0 69 C0 57.45 0 45.9 0 34 C-11.22 34 -22.44 34 -34 34 C-34 33.67 -34 33.34 -34 33 C-22.78 33 -11.56 33 0 33 C0 22.11 0 11.22 0 0 Z " fill="#FAD3A1" transform="translate(578,510)"/>
<path d="M0 0 C0.33 0 0.66 0 1 0 C1 3.3 1 6.6 1 10 C-10.22 10 -21.44 10 -33 10 C-33 21.22 -33 32.44 -33 44 C-65.67 43.505 -65.67 43.505 -99 43 C-99 42.67 -99 42.34 -99 42 C-77.55 42 -56.1 42 -34 42 C-34.03959995 31.18466757 -34.03959995 31.18466757 -34.09008789 20.36938477 C-34.09300716 19.01839273 -34.09555569 17.66739981 -34.09765625 16.31640625 C-34.10277222 15.60899292 -34.10788818 14.90157959 -34.11315918 14.17272949 C-34.11347032 12.44807383 -34.06225761 10.72353162 -34 9 C-33 8 -33 8 -29.94897461 7.88647461 C-28.60008729 7.88663366 -27.25119386 7.89232388 -25.90234375 7.90234375 C-24.83905602 7.90446617 -24.83905602 7.90446617 -23.75428772 7.90663147 C-21.48198288 7.91224557 -19.20977525 7.92480037 -16.9375 7.9375 C-15.40039204 7.94251319 -13.86328255 7.94707641 -12.32617188 7.95117188 C-8.55074358 7.96221958 -4.77538829 7.97949359 -1 8 C-1.020625 6.865625 -1.04125 5.73125 -1.0625 4.5625 C-1 1 -1 1 0 0 Z " fill="#FCFCFD" transform="translate(337,874)"/>
<path d="M0 0 C1.43352212 0.00015908 2.86704998 0.00585132 4.30053711 0.01586914 C5.43041298 0.01799156 5.43041298 0.01799156 6.58311462 0.02015686 C8.99807646 0.02577163 11.41294687 0.03832656 13.82788086 0.05102539 C15.46134307 0.05603849 17.09480672 0.06060173 18.72827148 0.06469727 C22.74067671 0.07574585 26.75301326 0.09302033 30.76538086 0.11352539 C30.76538086 0.44352539 30.76538086 0.77352539 30.76538086 1.11352539 C19.87538086 1.11352539 8.98538086 1.11352539 -2.23461914 1.11352539 C-1.90461914 2.10352539 -1.57461914 3.09352539 -1.23461914 4.11352539 C-1.17393131 6.03144307 -1.17607459 7.9515928 -1.21289062 9.87011719 C-1.23298691 11.05111496 -1.25308319 12.23211273 -1.27378845 13.44889832 C-1.30082352 14.72396744 -1.32785858 15.99903656 -1.35571289 17.31274414 C-1.37932388 18.61806595 -1.40293488 19.92338776 -1.42726135 21.26826477 C-1.49003689 24.73550268 -1.55912186 28.20258727 -1.6295166 31.66967773 C-1.70025915 35.20883208 -1.76504065 38.74809497 -1.83032227 42.28735352 C-1.95925034 49.22952878 -2.09484355 56.1715603 -2.23461914 63.11352539 C-2.89461914 63.11352539 -3.55461914 63.11352539 -4.23461914 63.11352539 C-4.25774651 55.04700365 -4.27553623 46.98049567 -4.28643131 38.91394901 C-4.29165928 35.16869502 -4.29875536 31.42346363 -4.31005859 27.67822266 C-4.32089055 24.06670852 -4.32689663 20.45521618 -4.32949638 16.84368706 C-4.33135008 15.4629221 -4.33496963 14.08215839 -4.3403492 12.70140266 C-4.34756361 10.77376587 -4.34802723 8.84610732 -4.34814453 6.91845703 C-4.35036514 5.8192543 -4.35258575 4.72005157 -4.35487366 3.58753967 C-4.17225109 -0.16958182 -3.85648731 0.13535109 0 0 Z " fill="#EAEAEB" transform="translate(824.234619140625,409.886474609375)"/>
<path d="M0 0 C1.65 0 3.3 0 5 0 C5 10.89 5 21.78 5 33 C-6.88 32.67 -18.76 32.34 -31 32 C-31 31.67 -31 31.34 -31 31 C-19.78 31 -8.56 31 3 31 C3 21.1 3 11.2 3 1 C2.01 0.67 1.02 0.34 0 0 Z " fill="#444D61" transform="translate(712,613)"/>
<path d="M0 0 C0.33 0 0.66 0 1 0 C1.0246519 4.82380802 1.04283693 9.64757967 1.05493164 14.47143555 C1.05997174 16.11369464 1.06680378 17.75594923 1.07543945 19.39819336 C1.08751926 21.75375479 1.09323139 24.10925709 1.09765625 26.46484375 C1.10281754 27.20339096 1.10797882 27.94193817 1.11329651 28.7028656 C1.1134925 30.46898088 1.06194719 32.23497146 1 34 C0 35 0 35 -2.95922852 35.11352539 C-4.25272217 35.10828857 -5.54621582 35.10305176 -6.87890625 35.09765625 C-7.90889992 35.09553383 -7.90889992 35.09553383 -8.95970154 35.09336853 C-11.16067801 35.08775479 -13.36155409 35.07520007 -15.5625 35.0625 C-17.05143083 35.05748676 -18.54036324 35.05292355 -20.02929688 35.04882812 C-23.68623075 35.03778093 -27.34310558 35.02050713 -31 35 C-31 34.34 -31 33.68 -31 33 C-21.1 33 -11.2 33 -1 33 C-0.67 22.11 -0.34 11.22 0 0 Z " fill="#E39E74" transform="translate(304,409)"/>
<path d="M0 0 C0.33 0 0.66 0 1 0 C1 10.56 1 21.12 1 32 C8.91226696 31.9606316 8.91226696 31.9606316 16.82446289 31.90991211 C22.32537299 31.89614095 27.58494363 32.00186915 33 33 C33 33.33 33 33.66 33 34 C21.78 34 10.56 34 -1 34 C-0.67 22.78 -0.34 11.56 0 0 Z " fill="#F9C997" transform="translate(306,580)"/>
<path d="M0 0 C0.99 0 1.98 0 3 0 C3 1.32 3 2.64 3 4 C-3.27 4 -9.54 4 -16 4 C-16 3.67 -16 3.34 -16 3 C-15.01257813 2.95101562 -14.02515625 2.90203125 -13.0078125 2.8515625 C-11.72648438 2.77679687 -10.44515625 2.70203125 -9.125 2.625 C-7.21074219 2.52058594 -7.21074219 2.52058594 -5.2578125 2.4140625 C-1.91938301 2.32758894 -1.91938301 2.32758894 0 0 Z " fill="#1C1B1C" transform="translate(714,777)"/>
</svg>
